<?xml version="1.0" encoding="UTF-8"?>
<svg version="1.1" xmlns="http://www.w3.org/2000/svg" width="256" height="256">
<path d="M0 0 C0.83217545 -0.00686325 1.66435089 -0.0137265 2.52174377 -0.02079773 C5.25368686 -0.03898907 7.98505073 -0.03523563 10.71704102 -0.02954102 C12.63786502 -0.03410989 14.5586874 -0.03941756 16.47950745 -0.04542542 C20.50333292 -0.05434416 24.52695986 -0.05195148 28.55078125 -0.04199219 C33.66091236 -0.03056601 38.77034586 -0.05062239 43.8803854 -0.07990932 C47.85030856 -0.09843489 51.82007008 -0.09794561 55.79002571 -0.0922718 C57.67113274 -0.09212025 59.55225193 -0.09802481 61.43331718 -0.11056328 C76.36668366 -0.19601382 91.40210249 0.88178449 104.78344727 8.21655273 C105.76631714 8.73040527 105.76631714 8.73040527 106.76904297 9.25463867 C112.0613128 12.0990289 116.74251618 15.47170004 121.28344727 19.40405273 C122.47454102 20.30317383 122.47454102 20.30317383 123.68969727 21.22045898 C138.25665251 33.48390474 147.34720187 53.51678665 149.15454102 72.24389648 C150.46828419 94.25904724 145.14410188 116.15755821 130.37670898 133.10595703 C115.89697758 149.05176753 97.9490495 159.3938993 76.28344727 161.40405273 C72.11758751 161.53738221 67.95497352 161.52049435 63.78735352 161.50170898 C62.00433083 161.49958656 62.00433083 161.49958656 60.18528748 161.49742126 C56.40548132 161.49184388 52.62573538 161.47929548 48.84594727 161.46655273 C46.27628667 161.46153481 43.70662513 161.45697242 41.13696289 161.45288086 C34.8524373 161.44188185 28.56794658 161.42516624 22.28344727 161.40405273 C22.29232971 162.20061279 22.30121216 162.99717285 22.31036377 163.81787109 C22.3907413 171.35001078 22.45152856 178.88194049 22.49069595 186.41439819 C22.51150982 190.28629963 22.53971236 194.15784465 22.58520508 198.02954102 C22.62888656 201.77079741 22.65263094 205.51171248 22.66295624 209.25320435 C22.6703079 210.67568327 22.68466365 212.09814496 22.70636749 213.52047729 C22.84205997 222.7872438 22.57090256 229.31495139 16.42407227 236.61108398 C9.7192269 242.30466135 3.78485388 245.09582662 -5.13842773 244.73999023 C-13.56668387 243.64176292 -18.68831581 240.12379911 -24.12280273 233.72045898 C-27.8989061 228.23215189 -28.01369066 223.42802583 -28.00708008 216.96728516 C-28.0137973 216.02355545 -28.02051453 215.07982574 -28.0274353 214.10749817 C-28.04641379 210.99145219 -28.05033953 207.87562165 -28.05249023 204.75952148 C-28.05891858 202.58864758 -28.06564697 200.41777455 -28.07266235 198.24690247 C-28.08463498 193.69664502 -28.08834322 189.14646349 -28.0871582 184.59619141 C-28.08695509 178.77555377 -28.11424953 172.95540482 -28.14870262 167.13488293 C-28.1709794 162.65063761 -28.17499549 158.16650972 -28.17393875 153.68221474 C-28.17629382 151.53688181 -28.18511203 149.3915456 -28.20060349 147.24626732 C-28.22027739 144.24016846 -28.21441941 141.23512098 -28.20239258 138.22900391 C-28.21363159 137.34924896 -28.22487061 136.46949402 -28.2364502 135.56307983 C-28.16657047 128.66289748 -26.32232711 123.49704123 -21.85717773 118.19702148 C-21.23327148 117.6672168 -20.60936523 117.13741211 -19.96655273 116.59155273 C-19.35295898 116.04885742 -18.73936523 115.50616211 -18.10717773 114.94702148 C-12.09151319 111.06436218 -6.431238 109.96043593 0.56030273 110.03515625 C1.34520081 110.03138977 2.13009888 110.02762329 2.93878174 110.02374268 C4.62907599 110.01734826 6.31940626 110.01760418 8.00970078 110.02392769 C10.69332351 110.03310497 13.37625743 110.02273865 16.05984497 110.00730896 C23.68466224 109.96739475 31.30942171 109.96600201 38.93432617 109.96826172 C43.61212868 109.96831305 48.28955835 109.94903254 52.96725845 109.91892815 C55.59625402 109.90818128 58.22451401 109.92018582 60.85348511 109.93275452 C71.79767201 109.90920349 81.32598865 109.05286781 89.74829102 101.24780273 C95.07190769 94.85404429 97.69236643 87.20383766 97.55688477 78.96655273 C96.64053973 70.37909073 92.83744527 63.00666394 86.28344727 57.40405273 C80.24688789 53.58681666 74.83292607 52.25609691 67.72607422 52.23046875 C66.95820084 52.22378174 66.19032745 52.21709473 65.39918518 52.21020508 C63.73117469 52.19615699 62.063145 52.18426216 60.39510536 52.17425728 C57.75040902 52.15782653 55.10585362 52.13458524 52.46122742 52.10935974 C44.94150853 52.03865942 37.4217307 51.97862041 29.90185547 51.92724609 C25.30121019 51.89533707 20.70072507 51.85402693 16.10021019 51.8070507 C14.35125822 51.79109631 12.60226936 51.77874467 10.85326576 51.77014351 C8.39794423 51.75789943 5.94299431 51.73371078 3.48779297 51.70703125 C2.41591736 51.70614754 2.41591736 51.70614754 1.3223877 51.70524597 C-6.86078158 51.58825956 -14.41692428 49.82043432 -20.71655273 44.40405273 C-27.47433335 36.06310443 -28.54379054 29.03996733 -27.71655273 18.40405273 C-26.11026567 12.32725589 -21.80308342 7.01768515 -16.71655273 3.40405273 C-10.91934877 0.86755276 -6.28876153 -0.03689077 0 0 Z " fill="#9C291B" transform="translate(72.716552734375,5.595947265625)"/>
<path d="M0 0 C0.83217545 -0.00686325 1.66435089 -0.0137265 2.52174377 -0.02079773 C5.25368686 -0.03898907 7.98505073 -0.03523563 10.71704102 -0.02954102 C12.63786502 -0.03410989 14.5586874 -0.03941756 16.47950745 -0.04542542 C20.50333292 -0.05434416 24.52695986 -0.05195148 28.55078125 -0.04199219 C33.66091236 -0.03056601 38.77034586 -0.05062239 43.8803854 -0.07990932 C47.85030856 -0.09843489 51.82007008 -0.09794561 55.79002571 -0.0922718 C57.67113274 -0.09212025 59.55225193 -0.09802481 61.43331718 -0.11056328 C76.36668366 -0.19601382 91.40210249 0.88178449 104.78344727 8.21655273 C105.76631714 8.73040527 105.76631714 8.73040527 106.76904297 9.25463867 C112.0613128 12.0990289 116.74251618 15.47170004 121.28344727 19.40405273 C122.11875977 20.01764648 122.95407227 20.63124023 123.81469727 21.26342773 C128.86909215 25.64603595 131.76481958 32.00787791 132.76782227 38.57592773 C132.98724312 47.22110948 131.49504679 53.33069058 125.59594727 59.71655273 C118.70503306 66.07067471 112.53740481 66.92823043 103.27172852 66.69311523 C99.63825615 66.34164209 97.29700469 65.46209195 94.28344727 63.40405273 C93.31407227 62.78530273 92.34469727 62.16655273 91.34594727 61.52905273 C89.73487676 60.41116707 88.1273949 59.28657114 86.56079102 58.10717773 C85.97426758 57.66889648 85.38774414 57.23061523 84.78344727 56.77905273 C84.25750977 56.37428711 83.73157227 55.96952148 83.18969727 55.55249023 C78.16929341 52.52790267 73.11586252 52.10906199 67.38549805 52.11694336 C66.61718658 52.11011032 65.84887512 52.10327728 65.05728149 52.09623718 C63.39752221 52.08270271 61.73772186 52.07361517 60.07791519 52.06852722 C57.44550537 52.06019751 54.81343573 52.03965442 52.18112183 52.01599121 C46.59028118 51.96788479 40.99940636 51.93488567 35.40844727 51.90405273 C28.93332112 51.8682947 22.45836192 51.82623641 15.98339462 51.76811218 C13.39996812 51.74815962 10.81667199 51.73974751 8.23318481 51.73181152 C6.63551369 51.71882838 5.03784682 51.70530652 3.44018555 51.69116211 C2.73031494 51.69214401 2.02044434 51.69312592 1.2890625 51.69413757 C-6.88185235 51.59405845 -14.42878582 49.81023583 -20.71655273 44.40405273 C-27.47433335 36.06310443 -28.54379054 29.03996733 -27.71655273 18.40405273 C-26.11026567 12.32725589 -21.80308342 7.01768515 -16.71655273 3.40405273 C-10.91934877 0.86755276 -6.28876153 -0.03689077 0 0 Z " fill="#E13E12" transform="translate(72.716552734375,5.595947265625)"/>
<path d="M0 0 C1.18160706 0.00636726 1.18160706 0.00636726 2.38708496 0.01286316 C4.8730059 0.02949258 7.35807919 0.06711261 9.84375 0.10546875 C11.54165486 0.12053604 13.23957258 0.13422084 14.9375 0.14648438 C19.07323719 0.17934409 23.2083505 0.23101401 27.34375 0.29296875 C24.34375 2.29296875 24.34375 2.29296875 22.0390625 3.51953125 C15.88917406 6.86551919 12.39987673 9.9817117 9.34375 16.29296875 C9.01375 16.95296875 8.68375 17.61296875 8.34375 18.29296875 C7.51627549 26.67245746 7.36542878 34.07638863 12.36328125 41.19921875 C17.05947369 46.1640297 22.60701805 49.22421805 29.34375 50.29296875 C29.34375 50.62296875 29.34375 50.95296875 29.34375 51.29296875 C26.70375 51.29296875 24.06375 51.29296875 21.34375 51.29296875 C21.35263245 52.08952881 21.36151489 52.88608887 21.3706665 53.70678711 C21.45104404 61.2389268 21.51183129 68.77085651 21.55099869 76.30331421 C21.57181256 80.17521565 21.6000151 84.04676067 21.64550781 87.91845703 C21.68918929 91.65971343 21.71293367 95.40062849 21.72325897 99.14212036 C21.73061064 100.56459928 21.74496638 101.98706098 21.76667023 103.40939331 C21.9023627 112.67615981 21.63120529 119.20386741 15.484375 126.5 C8.77952964 132.19357736 2.84515662 134.98474263 -6.078125 134.62890625 C-14.50638114 133.53067894 -19.62801307 130.01271513 -25.0625 123.609375 C-28.83860337 118.1210679 -28.95338792 113.31694184 -28.94677734 106.85620117 C-28.95349457 105.91247147 -28.96021179 104.96874176 -28.96713257 103.99641418 C-28.98611105 100.8803682 -28.9900368 97.76453766 -28.9921875 94.6484375 C-28.99861585 92.4775636 -29.00534424 90.30669057 -29.01235962 88.13581848 C-29.02433225 83.58556104 -29.02804048 79.03537951 -29.02685547 74.48510742 C-29.02665236 68.66446979 -29.0539468 62.84432083 -29.08839989 57.02379894 C-29.11067667 52.53955363 -29.11469275 48.05542573 -29.11363602 43.57113075 C-29.11599109 41.42579783 -29.12480929 39.28046162 -29.14030075 37.13518333 C-29.15997466 34.12908448 -29.15411667 31.124037 -29.14208984 28.11791992 C-29.15332886 27.23816498 -29.16456787 26.35841003 -29.17614746 25.45199585 C-29.10626774 18.55181349 -27.26202438 13.38595725 -22.796875 8.0859375 C-22.17296875 7.55613281 -21.5490625 7.02632813 -20.90625 6.48046875 C-20.29265625 5.93777344 -19.6790625 5.39507812 -19.046875 4.8359375 C-12.87124077 0.85002979 -7.16870797 -0.1487595 0 0 Z " fill="#E13E12" transform="translate(73.65625,115.70703125)"/>
</svg>
