<?xml version="1.0" encoding="UTF-8"?>
<svg version="1.1" xmlns="http://www.w3.org/2000/svg" width="1280" height="1280">
<path d="M0 0 C37.7547184 -0.68614266 74.3428662 3.70972908 104.06298828 29.05761719 C105.07361328 29.82074219 106.08423828 30.58386719 107.12548828 31.37011719 C111.64121049 35.50152262 115.32164441 40.22668896 119.06298828 45.05761719 C119.97951172 46.23324219 119.97951172 46.23324219 120.91455078 47.43261719 C140.76607148 74.2638963 146.24394716 108.81747369 146.19670105 141.41320801 C146.19896661 142.58556173 146.20123216 143.75791545 146.20356637 144.96579504 C146.20875486 148.17954477 146.20955935 151.39325879 146.208372 154.60701132 C146.20816615 158.08915693 146.2137042 161.57129451 146.21842957 165.05343628 C146.2266978 171.86131142 146.22948269 178.66917789 146.23004194 185.47705764 C146.23051903 191.01861645 146.23258331 196.56017243 146.23574257 202.10173035 C146.24453949 217.85575512 146.24916357 233.6097731 146.2484121 249.36380035 C146.24835216 250.63488128 146.24835216 250.63488128 146.24829102 251.93164062 C146.24825013 252.78007764 146.24820925 253.62851466 146.24816713 254.50266188 C146.24776117 268.23549559 146.25732085 281.96830182 146.27142938 295.70112759 C146.28584279 309.84374769 146.29269681 323.98635444 146.29183561 338.12898207 C146.2915053 346.05206941 146.29417883 353.97512795 146.30501366 361.89820862 C146.3141844 368.6470384 146.31624068 375.39582634 146.30950423 382.1446597 C146.30627152 385.57818272 146.30606221 389.01162577 146.31485748 392.44514084 C146.35480517 411.56580747 145.84616028 430.5344861 142.25048828 449.37011719 C142.080896 450.27689209 141.91130371 451.18366699 141.73657227 452.11791992 C140.13194599 460.33085358 137.85038406 468.17571958 135.06298828 476.05761719 C134.69560547 477.14945313 134.32822266 478.24128906 133.94970703 479.36621094 C125.74705249 502.39565684 109.8417821 523.97223753 89.06298828 537.05761719 C87.81001953 537.858125 87.81001953 537.858125 86.53173828 538.67480469 C81.22082651 541.96953699 75.87105044 544.75426439 70.06298828 547.05761719 C69.05880859 547.45851563 68.05462891 547.85941406 67.02001953 548.27246094 C60.3646588 550.79215447 53.74915213 552.7473972 46.81298828 554.30761719 C46.09312744 554.47068359 45.3732666 554.63375 44.6315918 554.80175781 C34.06138168 557.06173677 23.52052607 557.24403022 12.75170898 557.24291992 C10.39759967 557.24509674 8.0439677 557.26328414 5.68994141 557.28222656 C-7.42420541 557.33220537 -20.12123868 556.11579499 -32.87451172 552.87011719 C-34.1343689 552.54974487 -34.1343689 552.54974487 -35.41967773 552.22290039 C-65.70682969 544.13734577 -89.12858304 524.23395026 -105.03466797 497.59667969 C-112.57925443 484.46304338 -117.13056558 470.08040747 -120.74951172 455.43261719 C-121.04184692 454.27318604 -121.04184692 454.27318604 -121.34008789 453.09033203 C-124.72347279 438.52790941 -125.25606872 423.5554165 -125.38623047 408.67089844 C-125.40833054 406.82090269 -125.43085498 404.97091198 -125.45375061 403.1209259 C-125.51356702 397.96764481 -125.5584663 392.81433431 -125.59861755 387.66086578 C-125.6247254 384.34296189 -125.65368976 381.02509152 -125.6829834 377.70721436 C-126.11820918 326.60001885 -125.92858965 275.48936085 -125.72539216 224.38148445 C-125.69436911 216.46068378 -125.67015786 208.53988039 -125.64852905 200.61904907 C-125.62134672 190.81402978 -125.5825682 181.00912859 -125.53008395 171.20421106 C-125.50301229 166.11891404 -125.48026836 161.03370391 -125.46977425 155.94834328 C-125.36156284 107.88468688 -125.36156284 107.88468688 -119.24951172 86.80761719 C-118.99387451 85.90833496 -118.7382373 85.00905273 -118.47485352 84.08251953 C-109.92852218 55.21094893 -92.27421196 31.13298294 -65.93701172 16.05761719 C-62.34309135 14.14409742 -58.73003234 12.53297881 -54.93701172 11.05761719 C-53.95345703 10.6515625 -52.96990234 10.24550781 -51.95654297 9.82714844 C-35.33632224 3.37365771 -17.7595514 0.34840018 0 0 Z M-6.74951172 109.87011719 C-14.72119873 119.87096089 -15.24075331 130.91440727 -15.19770813 143.31350708 C-15.20153368 144.49922487 -15.20535922 145.68494266 -15.2093007 146.9065913 C-15.2177787 150.16682334 -15.21741823 153.42690962 -15.2131201 156.68714523 C-15.21063901 160.21561085 -15.21968426 163.74405072 -15.22715759 167.27250671 C-15.23986981 174.17423911 -15.24170252 181.07593254 -15.23935733 187.97767468 C-15.23756959 193.59321283 -15.23933356 199.20873922 -15.24358177 204.82427597 C-15.24417696 205.62550741 -15.24477215 206.42673886 -15.24538537 207.25225004 C-15.24659722 208.88034273 -15.24781135 210.50843543 -15.24902775 212.13652812 C-15.25989055 227.38670639 -15.25774717 242.63686252 -15.25164291 257.88704203 C-15.24647864 271.80701733 -15.25771847 285.72692254 -15.27674112 299.64688398 C-15.29616353 313.9702281 -15.30436759 328.29353915 -15.30061787 342.61689651 C-15.29871201 350.64609132 -15.30113279 358.67522655 -15.31533241 366.70441055 C-15.3273037 373.54235468 -15.32858745 380.38020259 -15.31654225 387.21814819 C-15.31069267 390.69980134 -15.30944366 394.181279 -15.32154465 397.66292 C-16.41087939 425.87426307 -16.41087939 425.87426307 -4.74951172 450.43261719 C2.03004234 454.34969286 8.43006348 455.90429254 16.06298828 454.05761719 C21.7191521 451.80534295 25.88860013 449.72884111 28.41455078 443.98339844 C28.83478516 442.79101562 29.25501953 441.59863281 29.68798828 440.37011719 C30.32607422 438.60087891 30.32607422 438.60087891 30.97705078 436.79589844 C33.27398919 428.88881191 33.20794415 421.05882878 33.19670105 412.88760376 C33.20009938 411.06871157 33.20009938 411.06871157 33.20356637 409.21307409 C33.20878549 405.86416975 33.20955402 402.51531929 33.208372 399.16641474 C33.2081673 395.54805781 33.21369326 391.9297088 33.21842957 388.31135559 C33.22672132 381.22908813 33.22948373 374.146829 33.23004194 367.06455709 C33.23051774 361.30634634 33.23257564 355.54813832 33.23574257 349.78992844 C33.24454457 333.45260293 33.24916257 317.11528398 33.2484121 300.77795608 C33.24835216 299.45797524 33.24835216 299.45797524 33.24829102 298.11132812 C33.24822969 296.78972992 33.24822969 296.78972992 33.24816713 295.44143276 C33.24776064 281.16089548 33.25733234 266.88038456 33.27142938 252.5998549 C33.28580084 237.92521043 33.29269916 223.25057882 33.29183561 208.57592714 C33.29150394 200.34180167 33.29423795 192.10770386 33.30501366 183.87358475 C33.3141287 176.86374335 33.3162856 169.85394215 33.30950423 162.84409739 C33.3062443 159.27020454 33.30616328 155.69638875 33.31485748 152.12250328 C33.32419985 148.24216602 33.31793282 144.36194067 33.31022644 140.4815979 C33.31537 139.36057163 33.32051357 138.23954536 33.325813 137.08454859 C33.27999398 126.62764999 31.99220346 116.91903988 26.06298828 108.05761719 C20.81590071 103.06101872 15.0386861 102.75465529 8.13330078 102.85449219 C1.58054412 103.2880079 -2.29070144 105.01187182 -6.74951172 109.87011719 Z " fill="#181818" transform="translate(1087.93701171875,598.9423828125)"/>
<path d="M0 0 C20.32428639 -0.07029577 40.64854787 -0.12308846 60.97293091 -0.15543652 C70.41135743 -0.1708601 79.84970811 -0.19186267 89.28808594 -0.22631836 C97.52118357 -0.25635955 105.75422624 -0.27560771 113.98737717 -0.28226548 C118.34077516 -0.28615298 122.694016 -0.29519339 127.04736328 -0.31719017 C131.15791615 -0.33778881 135.26824945 -0.34378744 139.37884903 -0.33932304 C140.87504399 -0.34013793 142.37124751 -0.34596279 143.86739731 -0.35761642 C167.24007768 -0.5304982 188.46788937 4.89598157 206 21 C208.24750839 23.5278322 210.15378154 26.16950242 212 29 C212.42796875 29.62519531 212.8559375 30.25039062 213.296875 30.89453125 C230.75735509 57.35470324 231.58108897 92.37115901 232 123 C232.01514648 123.75265137 232.03029297 124.50530273 232.04589844 125.28076172 C232.13101458 129.52515063 232.09440959 133.75606426 232 138 C231.99274902 138.7425 231.98549805 139.485 231.97802734 140.25 C231.67690702 165.72784197 227.8717569 193.3359757 209.65234375 212.46484375 C204.01228023 217.83675845 197.99197027 221.61035662 191 225 C191.85722656 225.43570313 192.71445312 225.87140625 193.59765625 226.3203125 C208.39336378 234.02675769 216.75316684 242.79270042 222 259 C223.29878957 264.27819777 224.17464285 269.62960182 225 275 C225.17418457 276.00393799 225.34836914 277.00787598 225.52783203 278.04223633 C226.12845843 283.07675267 226.14235379 288.02034048 226.1328125 293.0859375 C226.13426773 294.23527267 226.13572296 295.38460785 226.13722229 296.56877136 C226.13911846 299.81381091 226.13586588 303.05878948 226.12917709 306.30382156 C226.12498461 308.38263152 226.1220207 310.46144033 226.11929321 312.54025269 C226.10465276 322.56956864 226.06800156 332.59875609 226.02606201 342.62799072 C226.00714555 347.16375262 225.99005492 351.69951782 225.97393799 356.23529053 C225.9202102 371.1716455 225.85305117 386.10781417 225.76107025 401.04398346 C225.71833238 408.01219973 225.68021011 414.98036904 225.65411377 421.94866943 C225.62902382 428.60978924 225.58815009 435.27068676 225.53693962 441.93166542 C225.52019452 444.42790129 225.50862216 446.92417749 225.50235176 449.42046165 C225.49282479 452.8568217 225.46496113 456.29255244 225.43237305 459.72875977 C225.43380877 460.74788137 225.43524448 461.76700298 225.43672371 462.81700706 C225.42418493 463.74091051 225.41164616 464.66481396 225.39872742 465.61671448 C225.39181397 466.82186124 225.39181397 466.82186124 225.38476086 468.05135441 C225.25778977 468.69440745 225.13081869 469.3374605 225 470 C221.12735032 472.58176645 217.91955497 472.28075281 213.42944336 472.25878906 C212.55439651 472.2622937 211.67934967 472.26579834 210.77778625 472.26940918 C207.88172503 472.27822095 204.98590751 472.27237979 202.08984375 472.265625 C200.08109999 472.26697169 198.07235654 472.26891225 196.06361389 472.27142334 C191.8528432 472.27437375 187.64215732 472.27007914 183.43139648 472.26074219 C178.02501403 472.2493404 172.61882999 472.25591228 167.2124548 472.26788712 C163.06472773 472.27510169 158.91704799 472.27281977 154.76931953 472.26763153 C152.77534525 472.2662943 150.78136671 472.26794531 148.78739738 472.27259064 C146.00520252 472.27765005 143.22333266 472.26995426 140.44116211 472.25878906 C139.61149933 472.26283752 138.78183655 472.26688599 137.92703247 472.27105713 C132.22852957 472.22852957 132.22852957 472.22852957 130 470 C129.75669765 467.01591206 129.75669765 467.01591206 129.76622009 463.1028595 C129.76471517 462.02586297 129.76471517 462.02586297 129.76317984 460.92710894 C129.76222325 458.50834486 129.7755981 456.08986772 129.78881836 453.67114258 C129.79101863 451.94151395 129.79232486 450.21188399 129.7928009 448.48225403 C129.79574079 444.74884664 129.80501127 441.01552635 129.81910515 437.28214455 C129.8413548 431.36759669 129.84946005 425.45308132 129.85560608 419.53849792 C129.86700594 410.16763646 129.88773498 400.79682272 129.91250378 391.4259879 C129.95668534 374.68996221 129.99012683 357.95392143 130.01274782 341.21785277 C130.02110759 335.35125017 130.03508668 329.48469657 130.05372036 323.61811793 C130.06445738 319.94524401 130.07098093 316.27237047 130.07652092 312.5994854 C130.07995611 310.9109819 130.08513018 309.22248077 130.09228897 307.53398895 C131.09961466 284.86318619 131.09961466 284.86318619 124.0625 264.0625 C116.09222236 258.694762 106.29744613 258.77478718 97 258 C97 328.29 97 398.58 97 471 C93.64258954 472.67870523 89.85190432 472.13798265 86.15991211 472.12939453 C84.78663002 472.13202301 84.78663002 472.13202301 83.38560486 472.13470459 C80.34949873 472.13911772 77.31345051 472.13618724 74.27734375 472.1328125 C72.17509449 472.13348564 70.07284531 472.13445574 67.97059631 472.13571167 C63.56136332 472.13718786 59.15215057 472.13503637 54.74291992 472.13037109 C49.07751069 472.12467036 43.41214879 472.12795549 37.74674129 472.13394356 C33.40519348 472.13754829 29.06365699 472.13641105 24.72210884 472.13381577 C22.63241126 472.13314643 20.54271268 472.13397513 18.45301628 472.13629532 C15.53888074 472.13882079 12.62482307 472.13498291 9.71069336 472.12939453 C8.8384613 472.13141876 7.96622925 472.13344299 7.06756592 472.13552856 C1.11426311 472.11426311 1.11426311 472.11426311 0 471 C-0.09882802 468.49802598 -0.13177809 466.02365475 -0.12304783 463.52117062 C-0.12420167 462.72479277 -0.12535552 461.92841492 -0.12654433 461.1079044 C-0.12921837 458.40483729 -0.12468241 455.70182821 -0.12025452 452.99876404 C-0.12069006 451.05511987 -0.12156465 449.11147576 -0.12284368 447.16783196 C-0.125092 441.79994262 -0.12106278 436.43207303 -0.11606562 431.06418622 C-0.11176611 425.28569037 -0.11320719 419.50719573 -0.1139679 413.72869873 C-0.11449345 403.70812654 -0.11134338 393.68756084 -0.10573006 383.66699028 C-0.09761929 369.17874458 -0.09500027 354.69050203 -0.09374207 340.2022543 C-0.09163987 316.6987179 -0.08489755 293.19518488 -0.07543945 269.69165039 C-0.06625981 246.85375995 -0.05917385 224.01587043 -0.05493164 201.17797852 C-0.05480011 200.47440971 -0.05466859 199.7708409 -0.05453308 199.04595182 C-0.05321459 191.98063009 -0.05193877 184.91530834 -0.05069422 177.84998659 C-0.04815779 163.45622982 -0.04533653 149.06247311 -0.04234314 134.66871643 C-0.04220585 134.00686844 -0.04206856 133.34502044 -0.04192711 132.66311645 C-0.03272149 88.44207622 -0.01685497 44.22103789 0 0 Z M97 90 C97.33 117.72 97.66 145.44 98 174 C115.81629592 175.38230272 115.81629592 175.38230272 129.6875 169 C136.14180228 160.62685109 137.1494057 150.2827174 137.203125 140.05078125 C137.21167511 138.7708857 137.21167511 138.7708857 137.22039795 137.46513367 C137.22981197 135.6640241 137.23636756 133.86289759 137.24023438 132.06176758 C137.24990804 129.33838992 137.28095239 126.61577806 137.3125 123.89257812 C137.39370586 110.69146573 137.39370586 110.69146573 134 98 C133.76055664 97.33009033 133.52111328 96.66018066 133.27441406 95.9699707 C131.67255887 93.20780992 131.67255887 93.20780992 126 90 C116.43 90 106.86 90 97 90 Z " fill="#181818" transform="translate(573,65)"/>
<path d="M0 0 C28.53678148 -0.0233253 57.07356153 -0.04097736 85.61035061 -0.05181217 C98.85945898 -0.05697592 112.10856144 -0.0640201 125.35766602 -0.07543945 C136.90100882 -0.0853839 148.44434735 -0.09185286 159.98769432 -0.09408849 C166.10392255 -0.09539601 172.22013853 -0.09848442 178.33636284 -0.10573006 C184.08590521 -0.11248651 189.83543023 -0.11461773 195.5849762 -0.11310768 C197.70184486 -0.11338418 199.81871406 -0.11539151 201.9355793 -0.11920547 C204.81229417 -0.12413687 207.68894235 -0.12300035 210.56565857 -0.12025452 C211.4148634 -0.12316736 212.26406824 -0.1260802 213.13900656 -0.12908131 C218.88587879 -0.11412121 218.88587879 -0.11412121 220 1 C220.0975858 2.38910633 220.12631639 3.78312949 220.12698364 5.17565918 C220.12980347 6.07590317 220.13262329 6.97614716 220.13552856 7.90367126 C220.13249222 9.39671532 220.13249222 9.39671532 220.12939453 10.91992188 C220.13202301 12.48317955 220.13202301 12.48317955 220.13470459 14.07801819 C220.13912538 17.54161213 220.13618431 21.00515549 220.1328125 24.46875 C220.13348547 26.8638917 220.13445544 29.25903334 220.13571167 31.6541748 C220.13718895 36.68140308 220.13503311 41.70861362 220.13037109 46.73583984 C220.1246738 53.19606691 220.12795264 59.65625243 220.13394356 66.11647797 C220.13754835 71.06451737 220.13641096 76.01254685 220.13381577 80.96058655 C220.13314627 83.34334823 220.1339757 85.72611081 220.13629532 88.10887146 C220.13882051 91.43263149 220.13498313 94.75632321 220.12939453 98.08007812 C220.13141876 99.07544083 220.13344299 100.07080353 220.13552856 101.09632874 C220.13270874 101.99657272 220.12988892 102.89681671 220.12698364 103.82434082 C220.1264181 105.00459209 220.1264181 105.00459209 220.12584114 106.20868683 C220 108 220 108 219 109 C217.60856311 109.09543095 216.21231633 109.12188575 214.81761169 109.12025452 C213.46507797 109.12231651 213.46507797 109.12231651 212.08522034 109.12442017 C211.08828659 109.12082489 210.09135284 109.11722961 209.06420898 109.11352539 C208.02043091 109.11367142 206.97665283 109.11381744 205.90124512 109.1139679 C202.43284057 109.11326826 198.96448897 109.10547353 195.49609375 109.09765625 C193.09855682 109.09579225 190.7010195 109.09436826 188.30348206 109.09336853 C181.97904416 109.08954194 175.65462906 109.07971046 169.3302002 109.06866455 C161.74948854 109.0566596 154.16876928 109.05204886 146.58805084 109.04621124 C135.05868468 109.03649878 123.52936859 109.01734319 112 109 C112 136.72 112 164.44 112 193 C119.19554687 192.91621094 126.39109375 192.83242188 133.8046875 192.74609375 C138.35285991 192.69540266 142.90103165 192.64501086 147.44921875 192.59570312 C154.67435355 192.51734541 161.89946391 192.43785684 169.12451172 192.35180664 C174.9469798 192.28253026 180.76948308 192.21818146 186.59204483 192.15730476 C188.81769934 192.13315802 191.04333504 192.1072108 193.2689476 192.07946587 C196.37702236 192.04102221 199.48510133 192.00887858 202.59326172 191.97827148 C203.98508667 191.95885246 203.98508667 191.95885246 205.4050293 191.93904114 C206.6712764 191.9284819 206.6712764 191.9284819 207.96310425 191.91770935 C208.69869505 191.90941321 209.43428585 191.90111708 210.19216728 191.89256954 C212 192 212 192 214 193 C214 228.31 214 263.62 214 300 C180.34 300 146.68 300 112 300 C112.00523682 307.4468335 112.01047363 314.89366699 112.01586914 322.56616211 C112.03190337 346.36603126 112.04303569 370.16590008 112.05106533 393.96577316 C112.05231611 397.65971793 112.05361042 401.35366268 112.05493164 405.04760742 C112.05519395 405.78303635 112.05545626 406.51846527 112.05572652 407.27617992 C112.06008334 419.19978169 112.06797095 431.12337866 112.0771528 443.04697757 C112.08648902 455.27258626 112.09205554 467.49819243 112.09408849 479.72380453 C112.09546379 487.2737296 112.09981472 494.8236411 112.10791647 502.37356199 C112.11380424 508.15308919 112.11445904 513.93260762 112.11310768 519.71213722 C112.1133842 522.09024006 112.11539186 524.46834338 112.11920547 526.84644318 C112.124136 530.07785956 112.12300067 533.30921657 112.12025452 536.54063416 C112.12316736 537.49489459 112.1260802 538.44915503 112.12908131 539.43233246 C112.11412121 545.88587879 112.11412121 545.88587879 111 547 C109.55786001 547.09558036 108.11105921 547.12188394 106.66575623 547.12025452 C105.73041046 547.12162918 104.7950647 547.12300385 103.83137512 547.12442017 C102.79703842 547.12082489 101.76270172 547.11722961 100.69702148 547.11352539 C99.61422913 547.11367142 98.53143677 547.11381744 97.41583252 547.1139679 C93.81756626 547.11326823 90.21935103 547.10547333 86.62109375 547.09765625 C84.13387582 547.09579226 81.64665752 547.09436827 79.15943909 547.09336853 C73.26978809 547.0899335 67.3801561 547.08204277 61.49051291 547.07201904 C54.12974626 547.05976246 46.76897736 547.05437791 39.40820312 547.04882812 C26.27212602 547.03808815 13.13606417 547.02120089 0 547 C-0.11245851 495.06961687 -0.22372366 443.13923134 -0.32835388 391.20883179 C-0.32990168 390.44080094 -0.33144947 389.67277009 -0.33304417 388.88146559 C-0.36667078 372.19190862 -0.40007422 355.50235122 -0.4332476 338.81279335 C-0.44951611 330.62877621 -0.46583396 322.44475918 -0.48217773 314.26074219 C-0.48380334 313.44631444 -0.48542894 312.63188669 -0.4871038 311.79277931 C-0.53986042 285.37326656 -0.59587803 258.95376194 -0.65357857 232.53425956 C-0.71283377 205.39506481 -0.76881536 178.25586525 -0.82065109 151.11665527 C-0.82796644 147.28741952 -0.8353194 143.45818384 -0.84269524 139.62894821 C-0.84414581 138.87526605 -0.84559638 138.12158388 -0.84709091 137.34506286 C-0.8705807 125.1906724 -0.89754302 113.03629198 -0.92578938 100.88191175 C-0.95408167 88.67610265 -0.9787503 76.47029055 -0.99967117 64.26446654 C-1.01111749 57.6456396 -1.02433722 51.02682463 -1.04183006 44.40801048 C-1.05778352 38.35825867 -1.06918213 32.30851667 -1.07683109 26.25874881 C-1.08043676 24.0608776 -1.08576896 21.86300846 -1.09292836 19.66514595 C-1.10235745 16.69593718 -1.10570993 13.72678434 -1.10743046 10.75756264 C-1.11166182 9.8884484 -1.11589318 9.01933416 -1.12025276 8.12388313 C-1.1141458 2.2282916 -1.1141458 2.2282916 0 0 Z " fill="#181818" transform="translate(51,604)"/>
<path d="M0 0 C17.81245217 -0.0703913 35.62486776 -0.12313459 53.43742943 -0.15543652 C61.70996147 -0.17084014 69.9824066 -0.19180359 78.25488281 -0.22631836 C85.47353131 -0.25642169 92.69211679 -0.27562213 99.91082633 -0.28226548 C103.72550559 -0.28614269 107.54000474 -0.29511498 111.3546257 -0.31719017 C143.82017651 -0.49766353 173.11441756 2.303343 198.0625 25.5 C227.47600833 56.17208951 231.95675555 107.59323425 231.1953125 147.859375 C230.83071849 159.2587068 229.94114754 170.63619861 229 182 C228.93055176 182.85932129 228.86110352 183.71864258 228.78955078 184.60400391 C226.12779598 215.94227224 217.25127924 247.15138169 193.1875 268.5 C171.21716707 286.23135105 143.76882046 286.33720025 116.9375 286.125 C114.70247801 286.11494183 112.46745159 286.10582104 110.23242188 286.09765625 C104.82151611 286.07588672 99.41077953 286.04263768 94 286 C94.01049598 287.41966474 94.01049598 287.41966474 94.02120399 288.86800957 C94.19079025 311.86801263 94.34886337 334.86807268 94.49477577 357.86823845 C94.56560529 368.9908175 94.64021325 380.11334751 94.72363281 391.23583984 C94.79630857 400.92710571 94.86198008 410.61838901 94.91914403 420.30975926 C94.94967557 425.44405696 94.98377983 430.57827621 95.02626419 435.71249008 C95.06610245 440.5402748 95.09660904 445.36802659 95.11981392 450.19591904 C95.13002267 451.97214092 95.14370427 453.74834658 95.16103554 455.52451324 C95.18410761 457.94110948 95.1949246 460.35745249 95.20254517 462.7741394 C95.21712011 463.83930261 95.21712011 463.83930261 95.2319895 464.92598426 C95.22824242 469.77175758 95.22824242 469.77175758 93 472 C90.08299659 472.19353365 87.2612707 472.26217568 84.34350586 472.24291992 C83.44749161 472.24481827 82.55147736 472.24671661 81.62831116 472.24867249 C78.65706726 472.25238698 75.68606604 472.24166727 72.71484375 472.23046875 C70.65743539 472.22927731 68.60002648 472.22882371 66.5426178 472.2290802 C62.22751468 472.22751422 57.91249439 472.21921519 53.59741211 472.20581055 C48.05306488 472.1888099 42.50880868 472.18499644 36.96443844 472.18575573 C32.71553165 472.18548444 28.46664495 472.18001006 24.21774483 472.17275429 C22.17270625 472.16956168 20.12766538 472.16759884 18.08262444 472.16686058 C15.23074296 472.16470386 12.37896007 472.15597451 9.52709961 472.14526367 C8.67356903 472.14571686 7.82003845 472.14617004 6.94064331 472.14663696 C1.1144742 472.1144742 1.1144742 472.1144742 0 471 C-0.09882802 468.49802598 -0.13177809 466.02365475 -0.12304783 463.52117062 C-0.12420167 462.72479277 -0.12535552 461.92841492 -0.12654433 461.1079044 C-0.12921837 458.40483729 -0.12468241 455.70182821 -0.12025452 452.99876404 C-0.12069006 451.05511987 -0.12156465 449.11147576 -0.12284368 447.16783196 C-0.125092 441.79994262 -0.12106278 436.43207303 -0.11606562 431.06418622 C-0.11176611 425.28569037 -0.11320719 419.50719573 -0.1139679 413.72869873 C-0.11449345 403.70812654 -0.11134338 393.68756084 -0.10573006 383.66699028 C-0.09761929 369.17874458 -0.09500027 354.69050203 -0.09374207 340.2022543 C-0.09163987 316.6987179 -0.08489755 293.19518488 -0.07543945 269.69165039 C-0.06625981 246.85375995 -0.05917385 224.01587043 -0.05493164 201.17797852 C-0.05480011 200.47440971 -0.05466859 199.7708409 -0.05453308 199.04595182 C-0.05321459 191.98063009 -0.05193877 184.91530834 -0.05069422 177.84998659 C-0.04815779 163.45622982 -0.04533653 149.06247311 -0.04234314 134.66871643 C-0.04220585 134.00686844 -0.04206856 133.34502044 -0.04192711 132.66311645 C-0.03272149 88.44207622 -0.01685497 44.22103789 0 0 Z M94 89 C93.90233604 90.41445992 93.87368323 91.83375946 93.87301636 93.25158691 C93.87019653 94.16865921 93.86737671 95.08573151 93.86447144 96.03059387 C93.86649567 97.04465805 93.8685199 98.05872223 93.87060547 99.10351562 C93.86885315 100.16519455 93.86710083 101.22687347 93.86529541 102.32072449 C93.86087452 105.84924935 93.86381572 109.37772457 93.8671875 112.90625 C93.86651453 115.34623219 93.86554456 117.78621432 93.86428833 120.22619629 C93.86281103 125.34758134 93.86496693 130.46894899 93.86962891 135.59033203 C93.8753262 142.17162715 93.87204737 148.75288149 93.86605644 155.33417511 C93.86245168 160.37486074 93.86358902 165.41553662 93.86618423 170.45622253 C93.86685374 172.88364161 93.86602427 175.31106156 93.86370468 177.73847961 C93.86117955 181.12450523 93.86501678 184.51046379 93.87060547 187.89648438 C93.86858124 188.91054855 93.86655701 189.92461273 93.86447144 190.96940613 C93.86729126 191.88647842 93.87011108 192.80355072 93.87301636 193.74841309 C93.87339338 194.54999596 93.87377041 195.35157883 93.87415886 196.17745209 C93.80093511 198.01984169 93.80093511 198.01984169 95 199 C105.06582445 199.68242878 116.49767237 198.53318674 124.38671875 191.7421875 C139.29396844 175.64380164 135.60917147 148.31232696 135 128 C134.4773386 116.04437677 133.28932001 102.3481582 124 93.8125 C117.09717386 88.57721051 110.21580426 87.8569888 101.6875 87.875 C100.45386719 87.87242187 99.22023438 87.86984375 97.94921875 87.8671875 C95.11245739 87.66268264 95.11245739 87.66268264 94 89 Z " fill="#181818" transform="translate(52,65)"/>
<path d="M0 0 C4.20337099 3.3389637 8.16806264 6.91223846 12.09228516 10.57177734 C13.33945312 11.69712891 13.33945312 11.69712891 14.61181641 12.84521484 C28.09910217 25.55302525 37.86927862 42.72555651 43.52978516 60.25927734 C43.7647168 60.98203857 43.99964844 61.7047998 44.24169922 62.44946289 C47.8197504 74.37232456 48.38813314 86.57377175 48.34676075 98.94060135 C48.34915617 100.44713303 48.35242492 101.95366353 48.35647735 103.46019167 C48.36504453 107.57801272 48.36129303 111.69574187 48.35542163 115.8135642 C48.35123347 120.30192971 48.35866335 124.790279 48.36457413 129.27864051 C48.37332207 137.13798173 48.37465325 144.99729689 48.37107086 152.85664177 C48.36575767 164.54408309 48.37186537 176.23149923 48.38015379 187.91893781 C48.39538857 210.00835635 48.3970994 232.09776341 48.39463077 254.18718609 C48.3927976 271.24572058 48.39455821 288.30425132 48.39885521 305.36278534 C48.39945761 307.8141974 48.40005881 310.26560945 48.40065881 312.71702151 C48.40156607 316.41113801 48.40247474 320.1052545 48.40339116 323.799371 C48.41181995 358.14251424 48.4161569 392.48565607 48.41198444 426.8288002 C48.41182807 428.12329049 48.41167169 429.41778079 48.41151058 430.75149806 C48.4107048 437.31237688 48.40985903 443.8732557 48.40899727 450.43413451 C48.40874064 452.38862518 48.40874064 452.38862518 48.40847883 454.3826005 C48.40813217 457.01756985 48.40778364 459.65253919 48.40743324 462.28750853 C48.40207603 503.2877095 48.41000676 544.28788897 48.4284668 585.28808594 C48.44918635 631.36061591 48.4599096 677.43313256 48.45589131 723.50566745 C48.45549597 728.41894706 48.45513442 733.33222667 48.45479393 738.24550629 C48.4547032 739.45526464 48.45461247 740.66502299 48.45451899 741.91144069 C48.4533534 760.16754128 48.45999833 778.42362842 48.47060585 796.67972565 C48.48265854 817.44410823 48.48421598 838.20846118 48.47181568 858.97284421 C48.46518888 870.58909195 48.46681408 882.2052688 48.4804042 893.82151086 C48.48865556 901.58705593 48.4859422 909.35254797 48.47442893 917.11808874 C48.46817938 921.53844175 48.46655391 925.95865657 48.47829226 930.37900153 C48.57945201 971.212282 48.57945201 971.212282 42.27978516 987.44677734 C42.02189209 988.14109863 41.76399902 988.83541992 41.49829102 989.55078125 C36.30543179 1003.20193348 29.28212576 1015.58078466 19.25634766 1026.24365234 C17.37501246 1028.26761584 15.68177511 1030.34638233 13.96728516 1032.50927734 C-2.72231425 1051.58861153 -31.07654487 1063.44406432 -55.90771484 1065.57177734 C-88.25199534 1067.0712387 -118.84693345 1060.13850749 -143.90771484 1038.57177734 C-145.17615234 1037.48703125 -145.17615234 1037.48703125 -146.47021484 1036.38037109 C-167.5609449 1017.89383179 -182.88584032 990.91710646 -184.90771484 962.57177734 C-185.04861421 957.63467302 -185.04398405 952.69883345 -185.0363493 947.76016712 C-185.03769717 946.2531373 -185.03948175 944.74610782 -185.04166153 943.23907897 C-185.04638328 939.09661179 -185.04489254 934.95416664 -185.04238376 930.81169839 C-185.04074931 926.30534652 -185.04489266 921.79899934 -185.04829293 917.29264897 C-185.05344611 909.39409146 -185.05486428 901.49554008 -185.05383682 893.59698105 C-185.05231266 881.85135746 -185.05647195 870.10574065 -185.06171145 858.36011838 C-185.07138675 836.16219286 -185.07419576 813.96426964 -185.07476851 791.76634226 C-185.07522789 774.62517959 -185.07728542 757.48401783 -185.08046913 740.34285545 C-185.08136666 735.41035865 -185.08225648 730.47786184 -185.08314401 725.54536504 C-185.08336506 724.31916221 -185.08358611 723.09295939 -185.08381385 721.8295989 C-185.0899688 687.3346355 -185.09391434 652.83967242 -185.09347057 618.34470844 C-185.09345499 617.04393862 -185.09343942 615.74316879 -185.09342337 614.4029817 C-185.09334026 607.81000725 -185.09324122 601.21703279 -185.09313866 594.62405834 C-185.09311871 593.31464926 -185.09309877 592.00524017 -185.09307822 590.65615203 C-185.09303778 588.00820735 -185.09299598 585.36026267 -185.09295283 582.71231799 C-185.09234003 541.5115776 -185.09984719 500.31084545 -185.11352539 459.11010742 C-185.12888328 412.83073198 -185.13749179 366.55136195 -185.13656217 320.2719838 C-185.13648754 315.33791522 -185.13643883 310.40384664 -185.13640785 305.46977806 C-185.1363962 304.25486806 -185.13638454 303.03995807 -185.13637254 301.78823261 C-185.13634175 282.23058949 -185.14272973 262.67295352 -185.15134012 243.11531252 C-185.15981366 223.46212566 -185.16080888 203.80894925 -185.1542308 184.15576158 C-185.15053318 172.47872399 -185.15237383 160.80171815 -185.16217314 149.12468392 C-185.16816692 141.32354821 -185.16688435 133.52243552 -185.15970264 125.72130087 C-185.15581608 121.27727159 -185.15506008 116.83330379 -185.16315999 112.38927881 C-185.17047469 108.34055904 -185.16846042 104.29195159 -185.15923612 100.2432367 C-185.15752516 98.79334738 -185.15910905 97.34344911 -185.16453733 95.89356894 C-185.20755697 83.57052973 -184.3965803 71.39809959 -180.28271484 59.69677734 C-180.02474121 58.94775146 -179.76676758 58.19872559 -179.50097656 57.42700195 C-175.08257912 45.04115213 -169.15532195 33.84352246 -160.90771484 23.57177734 C-160.10076172 22.55083984 -159.29380859 21.52990234 -158.46240234 20.47802734 C-120.94763265 -26.27292338 -48.33741622 -36.18810915 0 0 Z M-129.90771484 34.57177734 C-129.90771484 35.23177734 -129.90771484 35.89177734 -129.90771484 36.57177734 C-130.49552734 36.80509766 -131.08333984 37.03841797 -131.68896484 37.27880859 C-134.4439095 38.88424289 -135.63069607 40.62201994 -137.40771484 43.25927734 C-138.01228516 44.15646484 -138.61685547 45.05365234 -139.23974609 45.97802734 C-141.26158383 49.12205605 -143.11316249 52.29207822 -144.90771484 55.57177734 C-145.54919736 56.64623783 -146.19067987 57.72069831 -146.85160124 58.8277182 C-156.26970718 75.42472041 -154.62500457 95.03961458 -154.55005261 113.47112365 C-154.537277 117.98506141 -154.55370483 122.49891396 -154.56626928 127.01283938 C-154.58426782 134.9109082 -154.583817 142.80880592 -154.57103348 150.70688248 C-154.55207542 162.45186948 -154.56181339 174.19671286 -154.57707501 185.94169898 C-154.60337308 206.92176405 -154.60113393 227.90175287 -154.58668045 248.88182515 C-154.5740938 267.24264687 -154.5708233 285.60344067 -154.57679367 303.96426582 C-154.5771756 305.183029 -154.57755752 306.40179218 -154.57795102 307.65748757 C-154.57950776 312.60507788 -154.58109977 317.55266817 -154.58274984 322.50025845 C-154.59803904 368.89665401 -154.5841869 415.29300107 -154.55726535 461.68938914 C-154.53353947 502.89166627 -154.53565988 544.09386612 -154.55957031 585.29614258 C-154.58635571 631.60713895 -154.59695317 677.91809248 -154.58150899 724.22909552 C-154.57990545 729.16788804 -154.57834125 734.10668056 -154.57679367 739.0454731 C-154.57639828 740.26149378 -154.5760029 741.47751446 -154.57559553 742.73038425 C-154.56991307 761.07702694 -154.57655043 779.42363863 -154.58919144 797.77027702 C-154.60349681 818.6362992 -154.5998943 839.50223335 -154.57278772 860.36824458 C-154.55812465 872.03988688 -154.55712121 883.71133846 -154.57601859 895.38297575 C-154.58725768 903.18659259 -154.58020386 910.99005702 -154.55849474 918.79365134 C-154.54664076 923.23491744 -154.54244954 927.6758056 -154.56052466 932.11705934 C-154.68011966 963.85661616 -150.41669702 987.72917273 -128.22021484 1011.75927734 C-111.13246085 1028.02186817 -89.54332088 1035.10605437 -66.25805664 1034.99584961 C-53.11033737 1034.65861214 -40.50259619 1031.91825333 -28.90771484 1025.57177734 C-28.09431641 1025.14251953 -27.28091797 1024.71326172 -26.44287109 1024.27099609 C-21.33892642 1021.40859426 -16.79103592 1018.02891486 -12.28271484 1014.32177734 C-11.74912354 1013.88518799 -11.21553223 1013.44859863 -10.66577148 1012.9987793 C-9.3711106 1011.90424688 -8.13356381 1010.7428633 -6.90771484 1009.57177734 C-6.90771484 1008.91177734 -6.90771484 1008.25177734 -6.90771484 1007.57177734 C-5.91771484 1007.24177734 -4.92771484 1006.91177734 -3.90771484 1006.57177734 C4.20738655 998.26516913 9.66831332 986.52677567 13.52978516 975.69677734 C13.77664063 975.007854 14.02349609 974.31893066 14.27783203 973.60913086 C17.45160962 964.21325726 17.23615221 954.77465309 17.22091961 944.95292187 C17.22226711 943.45467681 17.22405149 941.9564321 17.22623184 940.45818803 C17.23095849 936.33547052 17.22946126 932.21277512 17.22695407 928.09005653 C17.2253209 923.6068964 17.22946191 919.123741 17.23286325 914.64058238 C17.23801845 906.78128299 17.23943424 898.92198975 17.23840714 891.06268883 C17.23688351 879.37558584 17.24104106 867.68848968 17.24628176 856.00138802 C17.25595881 833.9150269 17.25876613 811.82866811 17.25933882 789.74230512 C17.25979812 772.68881207 17.26185521 755.63531992 17.26503944 738.58182716 C17.26593697 733.67542054 17.26682678 728.76901392 17.26771432 723.8626073 C17.26793537 722.64291082 17.26815642 721.42321434 17.26838416 720.16655736 C17.27453935 685.85342515 17.27848462 651.54029325 17.27804089 617.22716045 C17.27802531 615.93316326 17.27800973 614.63916606 17.27799368 613.30595683 C17.27791057 606.74723041 17.27781153 600.18850399 17.27770897 593.62977757 C17.27768902 592.32715725 17.27766908 591.02453694 17.27764853 589.68244328 C17.27760809 587.04822757 17.2775663 584.41401187 17.27752314 581.77979617 C17.27691026 540.78735731 17.28441887 499.79492672 17.2980957 458.80249023 C17.31344994 412.76340055 17.32206234 366.72431629 17.32113248 320.68522388 C17.32105785 315.77787419 17.32100914 310.87052451 17.32097816 305.96317482 C17.32096651 304.75483181 17.32095486 303.54648879 17.32094285 302.30152932 C17.32091205 282.84087123 17.32730282 263.3802203 17.33591043 243.91956434 C17.34437941 224.3682462 17.34538277 204.81693856 17.33880111 185.2656196 C17.33510051 173.64572268 17.33695301 162.02585765 17.34674345 150.4059641 C17.35272956 142.64671044 17.35146325 134.88747994 17.34427295 127.12822735 C17.34037989 122.70564083 17.33964901 118.28311615 17.3477303 113.86053392 C17.35502216 109.83477025 17.35305734 105.80911978 17.34380643 101.7833611 C17.34208942 100.33841532 17.34369943 98.89346061 17.34910764 97.44852392 C17.38792792 86.32931578 16.45178716 76.04546217 12.40478516 65.63427734 C12.1435083 64.95606934 11.88223145 64.27786133 11.61303711 63.57910156 C7.25929526 52.64130704 1.2605445 44.00487786 -6.90771484 35.57177734 C-7.55998047 34.82283203 -8.21224609 34.07388672 -8.88427734 33.30224609 C-22.10321996 18.73078618 -42.63235969 10.58581003 -61.97070312 9.45068359 C-87.10842067 8.33021479 -112.25416827 15.61056066 -129.90771484 34.57177734 Z " fill="#FECC00" transform="translate(488.90771484375,93.42822265625)"/>
<path d="M0 0 C14.32494426 -0.0233302 28.64988559 -0.04091336 42.97484493 -0.05181217 C49.6257353 -0.05704174 56.27660786 -0.06414072 62.92749023 -0.07543945 C69.34002877 -0.08626571 75.75255504 -0.09227628 82.16510201 -0.09487724 C84.61764278 -0.09673197 87.07018285 -0.10035347 89.52271843 -0.10573006 C92.94476677 -0.11293702 96.36676371 -0.11399109 99.78881836 -0.11352539 C100.81380432 -0.11712067 101.83879028 -0.12071594 102.89483643 -0.12442017 C103.82176804 -0.1230455 104.74869965 -0.12167084 105.70372009 -0.12025452 C106.51397613 -0.12117631 107.32423216 -0.1220981 108.1590414 -0.12304783 C110 0 110 0 111 1 C111.10384665 3.3929013 111.14206826 5.75720721 111.1386652 8.1508646 C111.14150742 8.9117866 111.14434964 9.67270861 111.14727798 10.45668885 C111.15568462 13.03913476 111.15689783 15.62153616 111.15821838 18.20399475 C111.16277968 20.06101907 111.16777906 21.91804235 111.17318195 23.77506441 C111.18682173 28.90351101 111.19419822 34.03195096 111.20060861 39.160411 C111.20858704 44.68124371 111.22229354 50.20206244 111.23532104 55.72288513 C111.25712024 65.29655077 111.27525207 74.87021779 111.29092598 84.44389534 C111.31359335 98.28599929 111.34174046 112.12808779 111.37124526 125.97017866 C111.41895969 148.42550622 111.46222193 170.88084011 111.50268555 193.33618164 C111.54201368 215.15552258 111.5834309 236.97485792 111.62768555 258.79418945 C111.62972934 259.8024799 111.62972934 259.8024799 111.63181442 260.83113986 C111.64549943 267.58139028 111.659227 274.33164062 111.67298577 281.0818909 C111.78842752 337.72124955 111.89585333 394.36061923 112 451 C148.63 451.33 185.26 451.66 223 452 C223.0309375 475.2340625 223.0309375 475.2340625 223.0625 498.9375 C223.071604 503.83585693 223.08070801 508.73421387 223.09008789 513.78100586 C223.09460449 519.74328613 223.09460449 519.74328613 223.09544373 522.53077698 C223.09698352 524.48573534 223.10050917 526.44069273 223.10557556 528.39564514 C223.11285108 531.34963644 223.11390748 534.3035695 223.11352539 537.25756836 C223.1171235 538.13459632 223.12072161 539.01162428 223.12442875 539.91522884 C223.11402634 545.88597366 223.11402634 545.88597366 222 547 C219.14267276 547.09793251 216.30951505 547.12992391 213.45176697 547.12025452 C212.09066239 547.12153615 212.09066239 547.12153615 210.70206076 547.12284368 C207.63721038 547.12450127 204.57241377 547.11897258 201.50756836 547.11352539 C199.32025656 547.11324355 197.13294467 547.11340119 194.94563293 547.1139679 C188.98719628 547.114256 183.02877955 547.10835714 177.07034755 547.10139394 C170.85098161 547.09516259 164.63161528 547.09455678 158.4122467 547.09336853 C147.96680358 547.09060885 137.52136732 547.08435336 127.07592773 547.07543945 C116.31518592 547.066266 105.5544461 547.05918484 94.79370117 547.05493164 C94.13085088 547.05466892 93.46800058 547.05440619 92.78506391 547.05413551 C89.45987074 547.05283051 86.13467756 547.05156904 82.80948436 547.05032361 C55.20631779 547.03985774 27.60315941 547.02225704 0 547 C-0.11245851 495.06961687 -0.22372366 443.13923134 -0.32835388 391.20883179 C-0.32990168 390.44080094 -0.33144947 389.67277009 -0.33304417 388.88146559 C-0.36667078 372.19190862 -0.40007422 355.50235122 -0.4332476 338.81279335 C-0.44951611 330.62877621 -0.46583396 322.44475918 -0.48217773 314.26074219 C-0.48380334 313.44631444 -0.48542894 312.63188669 -0.4871038 311.79277931 C-0.53986042 285.37326656 -0.59587803 258.95376194 -0.65357857 232.53425956 C-0.71283377 205.39506481 -0.76881536 178.25586525 -0.82065109 151.11665527 C-0.82796644 147.28741952 -0.8353194 143.45818384 -0.84269524 139.62894821 C-0.84414581 138.87526605 -0.84559638 138.12158388 -0.84709091 137.34506286 C-0.8705807 125.1906724 -0.89754302 113.03629198 -0.92578938 100.88191175 C-0.95408167 88.67610265 -0.9787503 76.47029055 -0.99967117 64.26446654 C-1.01111749 57.6456396 -1.02433722 51.02682463 -1.04183006 44.40801048 C-1.05778352 38.35825867 -1.06918213 32.30851667 -1.07683109 26.25874881 C-1.08043676 24.0608776 -1.08576896 21.86300846 -1.09292836 19.66514595 C-1.10235745 16.69593718 -1.10570993 13.72678434 -1.10743046 10.75756264 C-1.11166182 9.8884484 -1.11589318 9.01933416 -1.12025276 8.12388313 C-1.1141458 2.2282916 -1.1141458 2.2282916 0 0 Z " fill="#181818" transform="translate(572,604)"/>
<path d="M0 0 C1.17113799 0.00138269 1.17113799 0.00138269 2.36593533 0.00279331 C3.70584782 0.00073132 3.70584782 0.00073132 5.07282925 -0.00137234 C6.55420376 0.00402058 6.55420376 0.00402058 8.06550503 0.00952244 C9.09952953 0.00937641 10.13355404 0.00923038 11.19891262 0.00907993 C14.63485175 0.00977956 18.07073742 0.01757425 21.50666714 0.02539158 C23.88178382 0.02725558 26.25690089 0.02867957 28.63201809 0.0296793 C34.89727233 0.03350586 41.16250356 0.04333732 47.42774868 0.05438328 C53.81537979 0.06459443 60.2030146 0.06917628 66.59065151 0.0742197 C79.13428115 0.08495947 91.6778948 0.10184656 104.22151089 0.12304783 C105.41723553 4.82119975 105.3605354 9.37253639 105.34735203 14.18449116 C105.34880547 15.10337095 105.35025891 16.02225073 105.35175639 16.96897537 C105.3554215 20.06468119 105.35192758 23.16033793 105.34849453 26.25604343 C105.34964614 28.49116327 105.35123393 30.72628293 105.35322177 32.96140218 C105.35740949 39.11643135 105.35532691 45.27144509 105.35223556 51.42647433 C105.35021104 57.37831574 105.35286743 63.33015454 105.35538292 69.28199534 C105.36065264 82.20828532 105.36019076 95.13457036 105.35730401 108.0608608 C105.35479066 119.37022814 105.35413073 130.67959366 105.35532665 141.98896122 C105.35540304 142.738486 105.35547942 143.48801079 105.35555812 144.26024845 C105.35586945 147.30259912 105.35618785 150.34494979 105.35651789 153.38730046 C105.35957797 181.93533613 105.35680147 210.48336865 105.35142099 239.03140383 C105.34667332 264.41498086 105.34710151 289.79855287 105.35188198 315.18212986 C105.3572316 343.68324811 105.35936292 372.18436358 105.35626972 400.68548226 C105.35594898 403.72112067 105.35563614 406.75675909 105.35532665 409.7923975 C105.35524758 410.53988198 105.3551685 411.28736647 105.35508702 412.057502 C105.35394767 423.3647187 105.35528328 434.6719334 105.35780621 445.97914982 C105.36065871 458.82775852 105.35996501 471.6763615 105.35452546 484.52496949 C105.35183933 491.08699422 105.35088546 497.64901084 105.35417461 504.21103573 C105.35713497 510.20749952 105.35554916 516.20394354 105.35019706 522.20040551 C105.34907178 524.37993623 105.34966649 526.55946858 105.35207285 528.73899826 C105.35507413 531.68101294 105.35203519 534.62295814 105.34735203 537.56496906 C105.34969319 538.4288637 105.35203436 539.29275833 105.35444647 540.18283159 C105.33566128 546.00889743 105.33566128 546.00889743 104.22151089 547.12304783 C102.830074 547.21847878 101.43382722 547.24493358 100.03912258 547.24330235 C99.13743343 547.24467701 98.23574429 547.24605167 97.30673122 547.24746799 C96.30979748 547.24387272 95.31286373 547.24027744 94.28571987 547.23657322 C93.2419418 547.23671925 92.19816372 547.23686527 91.122756 547.23701572 C87.65435146 547.23631609 84.18599986 547.22852136 80.71760464 547.22070408 C78.3200677 547.21884008 75.92253039 547.21741609 73.52499294 547.21641636 C67.20055504 547.21258977 60.87613994 547.20275829 54.55171108 547.19171238 C48.10375686 547.18150128 41.65579898 547.17691939 35.20783901 547.17187595 C22.54571988 547.16113614 9.8836166 547.14424902 -2.77848911 547.12304783 C-2.79559874 495.08320788 -2.81152048 443.04336772 -2.82083225 391.00352573 C-2.82097031 390.23394709 -2.82110837 389.46436845 -2.82125061 388.67146925 C-2.82424316 371.94851073 -2.82701339 355.22555218 -2.82955444 338.50259358 C-2.83080183 330.30226647 -2.83209838 322.10193938 -2.83342075 313.90161228 C-2.83355151 313.08555893 -2.83368227 312.26950558 -2.83381699 311.42872334 C-2.83808223 284.95372403 -2.84559643 258.47872684 -2.85478633 232.00372882 C-2.86420903 204.80883669 -2.87037225 177.61394574 -2.8724041 150.41905201 C-2.87269228 146.58246827 -2.87301792 142.74588454 -2.87336636 138.9093008 C-2.87343378 138.15416806 -2.8735012 137.39903533 -2.87357067 136.62101978 C-2.87475474 124.44040155 -2.87939912 112.25978695 -2.88532115 100.0791702 C-2.89119415 87.84872712 -2.89346068 75.61828765 -2.89199049 63.3878432 C-2.89129446 56.7549683 -2.89236867 50.12210188 -2.89769459 43.48922825 C-2.90252643 37.42780161 -2.90282919 31.36639298 -2.89938801 25.30496555 C-2.8989621 23.10173181 -2.90025964 20.898497 -2.9033723 18.69526542 C-2.90733264 15.72121431 -2.90525478 12.74722989 -2.90153694 9.77318001 C-2.90416396 8.89983441 -2.90679097 8.02648881 -2.90949759 7.1266782 C-2.88966502 0.19992645 -2.88966502 0.19992645 0 0 Z " fill="#191919" transform="translate(820.778489112854,603.8769521713257)"/>
<path d="M0 0 C68.31 0 136.62 0 207 0 C208.06666954 4.26667818 208.14032415 8.15951928 208.12939453 12.51635742 C208.13202301 13.80229546 208.13202301 13.80229546 208.13470459 15.11421204 C208.13910209 17.94465159 208.13619328 20.77502857 208.1328125 23.60546875 C208.13348596 25.57033805 208.13445633 27.53520728 208.13571167 29.50007629 C208.13718564 33.61488642 208.13504304 37.72967482 208.13037109 41.84448242 C208.12466273 47.13093632 208.12796171 52.41733957 208.13394356 57.70379162 C208.13754769 61.75881842 208.13641146 65.81383309 208.13381577 69.86886024 C208.13314667 71.81900348 208.13397432 73.76914781 208.13629532 75.71928978 C208.13882064 78.43683184 208.13498349 81.15429038 208.12939453 83.87182617 C208.13141876 84.68481171 208.13344299 85.49779724 208.13552856 86.3354187 C208.11426488 91.88573512 208.11426488 91.88573512 207 93 C188.85 93 170.7 93 152 93 C152 217.74 152 342.48 152 471 C148.66458155 472.66770923 144.91883401 472.13801746 141.25170898 472.12939453 C139.89305725 472.13202301 139.89305725 472.13202301 138.50695801 472.13470459 C135.50331729 472.13911758 132.4997351 472.13618729 129.49609375 472.1328125 C127.41626474 472.13348564 125.3364358 472.13445575 123.25660706 472.13571167 C118.89445243 472.13718784 114.53231826 472.13503643 110.17016602 472.13037109 C104.56529077 472.12467032 98.96046336 472.12795553 93.35558987 472.13394356 C89.06036515 472.13754832 84.76515188 472.13641104 80.46992683 472.13381577 C78.40255795 472.13314644 76.33518805 472.1339751 74.26782036 472.13629532 C71.38481753 472.13882083 68.50189342 472.13498285 65.61889648 472.12939453 C64.32457451 472.13243088 64.32457451 472.13243088 63.00410461 472.13552856 C57.11426313 472.11426313 57.11426313 472.11426313 56 471 C55.90217743 468.99315942 55.87628753 466.9828093 55.87695217 464.97358608 C55.87496112 463.65487151 55.87297007 462.33615693 55.87091869 460.97748131 C55.87377229 459.49478859 55.8767179 458.01209605 55.87974548 456.52940369 C55.87930992 454.96936592 55.87843528 453.40932821 55.87715632 451.84929091 C55.87490846 447.5417461 55.87893659 443.23422592 55.88393438 438.92668426 C55.88823455 434.28930336 55.88679276 429.65192396 55.8860321 425.01454163 C55.88550659 416.97309475 55.88865622 408.93165595 55.89426994 400.89021111 C55.90238128 389.26349067 55.90499979 377.63677416 55.90625793 366.0100512 C55.90844903 347.14854428 55.91511068 328.28704168 55.92456055 309.42553711 C55.93373317 291.09838889 55.94081474 272.77124184 55.94506836 254.4440918 C55.94533108 253.31527019 55.94559381 252.18644859 55.94586449 251.02342027 C55.94716949 245.36071197 55.9484332 239.69800367 55.94967639 234.03529537 C55.96005081 187.0235271 55.97794502 140.01176411 56 93 C37.52 93 19.04 93 0 93 C0 62.31 0 31.62 0 0 Z " fill="#181818" transform="translate(818,65)"/>
<path d="M0 0 C45.21 0 90.42 0 137 0 C137.87415297 3.49661188 138.12871578 6.05273256 138.1328125 9.60546875 C138.13410156 10.67087891 138.13539063 11.73628906 138.13671875 12.83398438 C138.13285156 13.94064453 138.12898438 15.04730469 138.125 16.1875 C138.12886719 17.30576172 138.13273437 18.42402344 138.13671875 19.57617188 C138.13478516 21.16848633 138.13478516 21.16848633 138.1328125 22.79296875 C138.13168457 23.7677417 138.13055664 24.74251465 138.12939453 25.74682617 C138 28 138 28 137 29 C135.09756238 29.09391296 133.19161541 29.11743658 131.28686523 29.11352539 C130.0656749 29.11344986 128.84448456 29.11337433 127.58628845 29.11329651 C126.24372314 29.10818911 124.90115825 29.10297311 123.55859375 29.09765625 C122.19238842 29.09579199 120.82618243 29.09436813 119.4599762 29.09336853 C115.85798305 29.08954394 112.25603 29.07971417 108.65405273 29.06866455 C104.98096255 29.05844916 101.30786591 29.05387064 97.63476562 29.04882812 C90.42315877 29.03809184 83.211585 29.02101614 76 29 C76.495 33.95 76.495 33.95 77 39 C106.7 39.495 106.7 39.495 137 40 C137.87415297 43.49661188 138.12871578 46.05273256 138.1328125 49.60546875 C138.13410156 50.67087891 138.13539063 51.73628906 138.13671875 52.83398438 C138.13285156 53.94064453 138.12898438 55.04730469 138.125 56.1875 C138.12886719 57.30576172 138.13273437 58.42402344 138.13671875 59.57617188 C138.13478516 61.16848633 138.13478516 61.16848633 138.1328125 62.79296875 C138.13168457 63.7677417 138.13055664 64.74251465 138.12939453 65.74682617 C138 68 138 68 137 69 C135.22839682 69.09634459 133.45291592 69.12187481 131.67869568 69.12025452 C130.52458191 69.12162918 129.37046814 69.12300385 128.18138123 69.12442017 C126.90392532 69.12082489 125.62646942 69.11722961 124.31030273 69.11352539 C122.96041872 69.11324352 121.61053456 69.11340125 120.26065063 69.1139679 C116.58519392 69.11425587 112.90976957 69.10835916 109.2343204 69.10139394 C105.39726851 69.09516038 101.56021596 69.0945566 97.72315979 69.09336853 C90.45228782 69.09025522 83.18143081 69.08204183 75.91056544 69.07201904 C67.63500648 69.0608579 59.35944682 69.05534745 51.08388221 69.05032361 C34.05591281 69.03985922 17.02795798 69.02225978 0 69 C-0.16729064 65.03092526 -0.32788226 61.06164279 -0.48217773 57.09204102 C-0.53565802 55.74072921 -0.59099194 54.38948948 -0.64819336 53.03833008 C-0.72993571 51.09997011 -0.80453323 49.16131296 -0.87890625 47.22265625 C-0.9260376 46.05484619 -0.97316895 44.88703613 -1.02172852 43.68383789 C-1 41 -1 41 0 40 C1.47250645 39.87767356 2.95065711 39.8222544 4.42797852 39.79467773 C5.36887833 39.77473251 6.30977814 39.75478729 7.27919006 39.73423767 C8.30209641 39.71752518 9.32500275 39.70081268 10.37890625 39.68359375 C11.941605 39.6524221 11.941605 39.6524221 13.53587341 39.62062073 C16.87801247 39.55500943 20.22023285 39.49618669 23.5625 39.4375 C25.82227418 39.39432578 28.08204001 39.35071186 30.34179688 39.30664062 C35.89444699 39.19931628 41.44717924 39.09808186 47 39 C47 36.03 47 33.06 47 30 C31.49 29.67 15.98 29.34 0 29 C-0.185625 24.58625 -0.37125 20.1725 -0.5625 15.625 C-0.62381104 14.23361816 -0.68512207 12.84223633 -0.74829102 11.40869141 C-0.79139404 10.31733887 -0.83449707 9.22598633 -0.87890625 8.1015625 C-0.9260376 6.98088379 -0.97316895 5.86020508 -1.02172852 4.70556641 C-1 2 -1 2 0 0 Z " fill="#181818" transform="translate(1038,439)"/>
<path d="M0 0 C1.23621094 -0.00128906 2.47242188 -0.00257813 3.74609375 -0.00390625 C5.65455078 0.00189453 5.65455078 0.00189453 7.6015625 0.0078125 C9.54482422 0.00201172 9.54482422 0.00201172 11.52734375 -0.00390625 C13.37005859 -0.00197266 13.37005859 -0.00197266 15.25 0 C16.37325684 0.00112793 17.49651367 0.00225586 18.65380859 0.00341797 C21.2265625 0.1328125 21.2265625 0.1328125 22.2265625 1.1328125 C22.31431855 3.27840077 22.33351469 5.42685671 22.32421875 7.57421875 C22.32099609 8.87939453 22.31777344 10.18457031 22.31445312 11.52929688 C22.30609651 12.9179694 22.29763155 14.30664127 22.2890625 15.6953125 C22.28404916 17.08788906 22.27948597 18.48046731 22.27539062 19.87304688 C22.26355684 23.2930112 22.2470713 26.71289094 22.2265625 30.1328125 C21.01540771 30.17039673 21.01540771 30.17039673 19.77978516 30.20874023 C16.13687333 30.32446737 12.49423524 30.44729885 8.8515625 30.5703125 C7.58054687 30.60962891 6.30953125 30.64894531 5 30.68945312 C3.78828125 30.73134766 2.5765625 30.77324219 1.328125 30.81640625 C-0.35289307 30.87139282 -0.35289307 30.87139282 -2.06787109 30.92749023 C-4.74056521 30.95877263 -4.74056521 30.95877263 -6.7734375 32.1328125 C-7.02374727 34.54901073 -7.02374727 34.54901073 -6.7734375 37.1328125 C-3.17622265 39.53095574 -0.58222463 39.42211185 3.57202148 39.4074707 C4.68957825 39.4151371 4.68957825 39.4151371 5.82971191 39.42295837 C8.29410826 39.43686568 10.75822531 39.43589677 13.22265625 39.43359375 C14.93514612 39.43748009 16.64763503 39.44181463 18.36012268 39.44657898 C21.9504814 39.45404365 25.5407418 39.45374816 29.13110352 39.44848633 C33.73249653 39.44269163 38.33348704 39.45962133 42.9348135 39.482831 C46.47185114 39.49756178 50.00879169 39.49844094 53.54585457 39.49532127 C55.24232849 39.49583483 56.93880779 39.50107896 58.635252 39.51113319 C61.00767048 39.52346767 63.37930312 39.5167244 65.75170898 39.50512695 C66.45262161 39.51277069 67.15353424 39.52041443 67.87568665 39.52828979 C71.94355938 39.48432832 74.26418887 38.98678251 77.2265625 36.1328125 C76.95980046 34.14789608 76.95980046 34.14789608 76.2265625 32.1328125 C72.79773309 30.98986936 69.98573412 30.92316778 66.37109375 30.81640625 C65.16042236 30.77829834 63.94975098 30.74019043 62.70239258 30.70092773 C60.39404419 30.63627319 60.39404419 30.63627319 58.0390625 30.5703125 C53.1509375 30.4259375 48.2628125 30.2815625 43.2265625 30.1328125 C43.2265625 20.2328125 43.2265625 10.3328125 43.2265625 0.1328125 C47.8858352 0.08657936 52.54429288 0.04685298 57.20361328 0.02294922 C58.78437008 0.01297091 60.36510881 -0.00061657 61.94580078 -0.01806641 C87.61160773 -0.29404283 87.61160773 -0.29404283 98.015625 9.8828125 C104.68427857 17.76693495 105.8029374 27.95328093 105.50390625 37.96484375 C104.54833983 48.87983479 100.58022512 55.77914988 92.9140625 63.4453125 C84.42638841 68.77478228 75.84963455 70.24768066 65.92114258 70.27807617 C65.22738525 70.28143478 64.53362793 70.2847934 63.81884766 70.28825378 C61.54457769 70.2976857 59.27038201 70.2997032 56.99609375 70.30078125 C55.39816763 70.30400007 53.8002418 70.3073646 52.20231628 70.31086731 C48.85777098 70.31683983 45.51325143 70.31870923 42.16870117 70.31811523 C37.91356762 70.31801392 33.65860206 70.3316431 29.40350819 70.34888744 C26.10293339 70.36008838 22.80239811 70.36203195 19.50180626 70.36150551 C17.93475455 70.36267435 16.36770143 70.36703344 14.80066872 70.37483788 C-1.07356239 70.44647697 -16.72474516 69.87044803 -28.859375 58.421875 C-31.94735032 54.72890859 -33.46257514 50.72083074 -34.7734375 46.1328125 C-34.96421875 45.51148438 -35.155 44.89015625 -35.3515625 44.25 C-37.44777575 33.73011498 -35.81219214 23.13376946 -30.5234375 13.8828125 C-26.27029469 7.57950205 -20.99492442 3.58295985 -13.7734375 1.1328125 C-9.14459261 0.33790492 -4.6927924 0.00468409 0 0 Z " fill="#181818" transform="translate(1071.7734375,323.8671875)"/>
<path d="M0 0 C1.13937012 0.00942627 2.27874023 0.01885254 3.45263672 0.02856445 C15.63286943 0.24740757 26.49272596 1.44874142 35.80859375 9.97265625 C43.93292465 18.52560892 42.0625 27.61177627 42.0625 39.375 C59.5525 39.375 77.0425 39.375 95.0625 39.375 C95.9341575 42.86163001 96.19120221 45.40400497 96.1953125 48.9453125 C96.19660156 50.00621094 96.19789063 51.06710937 96.19921875 52.16015625 C96.19535156 53.26230469 96.19148438 54.36445313 96.1875 55.5 C96.19136719 56.60988281 96.19523437 57.71976562 96.19921875 58.86328125 C96.19728516 60.45076172 96.19728516 60.45076172 96.1953125 62.0703125 C96.19418457 63.03984863 96.19305664 64.00938477 96.19189453 65.00830078 C96.0625 67.375 96.0625 67.375 95.0625 69.375 C77.36486757 69.44500884 59.66727097 69.49794821 41.96953011 69.53043652 C33.75258894 69.54592078 25.53573369 69.56703994 17.31884766 69.60131836 C10.15895084 69.63117315 2.99911622 69.65056365 -4.16084111 69.65726548 C-7.95377051 69.66118444 -11.7465219 69.67042652 -15.53939438 69.69219017 C-19.10655893 69.71249362 -22.67347149 69.7188464 -26.24068832 69.71432304 C-28.17979895 69.71554696 -30.11888189 69.73172116 -32.05792236 69.7482605 C-33.20499664 69.74413651 -34.35207092 69.74001251 -35.53390503 69.73576355 C-36.53497221 69.73852893 -37.53603939 69.74129431 -38.56744194 69.74414349 C-39.74062068 69.56141746 -39.74062068 69.56141746 -40.9375 69.375 C-43.01141571 66.26412643 -43.18387254 65.65144347 -43.13623047 62.13818359 C-43.12896942 61.28654633 -43.12170837 60.43490906 -43.11422729 59.5574646 C-43.0847551 58.17937119 -43.0847551 58.17937119 -43.0546875 56.7734375 C-43.03914825 55.82240143 -43.02360901 54.87136536 -43.00759888 53.89151001 C-42.97076598 51.87564658 -42.92836929 49.85987834 -42.88085938 47.84423828 C-42.81322522 44.78282656 -42.77675222 41.72209653 -42.7421875 38.66015625 C-42.70243717 36.69787691 -42.66082859 34.73563416 -42.6171875 32.7734375 C-42.60968475 31.86685394 -42.60218201 30.96027039 -42.5944519 30.0262146 C-42.3499384 21.89367097 -39.89307505 14.16961356 -33.9375 8.375 C-23.82471534 1.17314482 -12.10739803 -0.15513108 0 0 Z M-14.9375 33.375 C-14.9375 35.355 -14.9375 37.335 -14.9375 39.375 C-5.0375 39.375 4.8625 39.375 15.0625 39.375 C15.57411718 34.55772042 15.57411718 34.55772042 13.3125 32.125 C5.07646477 27.6902118 -7.12204334 28.16469556 -14.9375 33.375 Z " fill="#181818" transform="translate(1079.9375,211.625)"/>
<path d="M0 0 C3.125 -0.1875 3.125 -0.1875 6 0 C18.10399825 22.96063789 16.44716181 54.82100403 9.84375 79.55078125 C8.64289732 83.03658974 7.58445341 85.33953325 5 88 C2.5 88.6875 2.5 88.6875 0 88 C-5.97912791 82.90015561 -6.93586914 73.4153524 -8 66 C-8.19236993 61.30100083 -8.18580891 56.60227453 -8.18530273 51.89990234 C-8.18746027 49.66613857 -8.20556254 47.43289345 -8.22460938 45.19921875 C-8.35519286 12.53278929 -8.35519286 12.53278929 0 0 Z " fill="#FEFEFD" transform="translate(409,920)"/>
<path d="M0 0 C0.33 0 0.66 0 1 0 C1 154.11 1 308.22 1 467 C30.7 467 60.4 467 91 467 C91 409.58 91 352.16 91 293 C91.33 293 91.66 293 92 293 C92.00423194 293.72571292 92.00846388 294.45142584 92.01282406 295.19913006 C92.11692295 313.00130278 92.22566501 330.80344138 92.33933926 348.60555553 C92.39420751 357.21513391 92.44760365 365.82471634 92.49731445 374.43432617 C92.54073481 381.95377947 92.58714081 389.47320795 92.63687855 396.9926222 C92.66302449 400.96014727 92.68784842 404.92766892 92.70907402 408.89522362 C92.73318226 413.36532406 92.76231085 417.83537204 92.79467773 422.30541992 C92.79945125 423.01209915 92.80422477 423.71877837 92.80914295 424.44687212 C92.8654026 432.15005746 93.00149059 439.8418108 93.3130188 447.53921509 C93.34010101 448.22139227 93.36718322 448.90356945 93.39508611 449.60641867 C93.5256653 452.8333206 93.67093458 456.05863235 93.83619595 459.2839613 C93.88618772 460.40574433 93.93617949 461.52752737 93.98768616 462.68330383 C94.06321764 464.15805664 94.06321764 464.15805664 94.140275 465.66260242 C94 468 94 468 92 470 C89.07751618 470.18827993 86.25049178 470.2516874 83.32763672 470.22705078 C82.43001617 470.22734283 81.53239563 470.22763489 80.60757446 470.22793579 C77.63151485 470.22653903 74.65570355 470.21096156 71.6796875 470.1953125 C69.61988461 470.1915836 67.56007995 470.18873605 65.50027466 470.18673706 C60.0717888 470.1790909 54.6434095 470.15943399 49.21496582 470.1373291 C43.67848146 470.1168918 38.14197993 470.10773988 32.60546875 470.09765625 C21.73693228 470.07618902 10.86847499 470.04204126 0 470 C-1.52344045 466.9531191 -1.12639542 463.78666479 -1.10743046 460.4449749 C-1.10689593 459.65250833 -1.1063614 458.86004175 -1.10581067 458.04356104 C-1.10275684 455.3598101 -1.09247582 452.67613382 -1.08229065 449.99240112 C-1.07859966 448.06026921 -1.07534968 446.12813642 -1.07250541 444.19600308 C-1.06336947 438.86456802 -1.04793566 433.53316651 -1.03152263 428.20174956 C-1.01493497 422.46077085 -1.00411806 416.71978102 -0.99261475 410.97879028 C-0.97187316 401.02479975 -0.94744226 391.07082369 -0.92053413 381.11684799 C-0.88163437 366.72491439 -0.84825425 352.33297219 -0.81623887 337.94102181 C-0.76415044 314.59332075 -0.70758146 291.24563277 -0.64819336 267.89794922 C-0.59050015 245.21240756 -0.53491099 222.52686235 -0.48217773 199.84130859 C-0.48055215 199.14235348 -0.47892657 198.44339836 -0.47725173 197.72326279 C-0.46092967 190.70423096 -0.44465047 183.68519903 -0.42840267 176.66616702 C-0.39530143 162.36689112 -0.36191412 148.06761589 -0.32835388 133.76834106 C-0.32527166 132.45498453 -0.32218945 131.141628 -0.31901383 129.78847279 C-0.21735797 86.52563714 -0.10911472 43.2628174 0 0 Z " fill="#070707" transform="translate(53,67)"/>
<path d="M0 0 C0.99 0 1.98 0 3 0 C3.06860617 36.65544055 3.12149826 73.31087146 3.15319599 109.96636318 C3.15694829 114.2899128 3.16083124 118.61346229 3.16479492 122.93701172 C3.16558185 123.79778415 3.16636878 124.65855659 3.16717956 125.54541303 C3.18024786 139.49884561 3.2039095 153.45224127 3.23145839 167.40565191 C3.25947304 181.71387628 3.2761679 196.02208125 3.28226548 210.33033192 C3.28639013 219.16548478 3.29943615 228.00053328 3.3237494 236.83565404 C3.33955802 242.88708009 3.34441148 248.93845189 3.34050413 254.98989712 C3.33857494 258.48582656 3.34161541 261.98157314 3.35761642 265.4774704 C3.37242336 269.26042813 3.36899671 273.04293013 3.36076355 276.82589722 C3.36950207 277.94066464 3.3782406 279.05543207 3.38724393 280.20398033 C3.38127078 281.21118035 3.37529764 282.21838037 3.36914349 283.25610161 C3.37028265 284.13021781 3.37142181 285.00433401 3.37259549 285.90493858 C3.18816072 286.94199398 3.18816072 286.94199398 3 288 C2.01 288.66 1.02 289.32 0 290 C0 194.3 0 98.6 0 0 Z " fill="#101010" transform="translate(1121,731)"/>
<path d="M0 0 C2.97 0.495 2.97 0.495 6 1 C4.68 1.33 3.36 1.66 2 2 C2 72.29 2 142.58 2 215 C-1.3614555 216.68072775 -5.15987468 216.12876829 -8.85595703 216.11352539 C-9.77308472 216.11367142 -10.6902124 216.11381744 -11.63513184 216.1139679 C-14.67604919 216.11326948 -17.7169058 216.1054804 -20.7578125 216.09765625 C-22.86245693 216.09579182 -24.9671018 216.09436803 -27.07174683 216.09336853 C-32.61856275 216.08954535 -38.1653526 216.07971674 -43.7121582 216.06866455 C-49.3692998 216.05844616 -55.02644559 216.05386999 -60.68359375 216.04882812 C-71.78907397 216.03809431 -82.89453482 216.02102026 -94 216 C-94 215.01 -94 214.02 -94 213 C-62.98 213 -31.96 213 0 213 C0 142.71 0 72.42 0 0 Z " fill="#0E0E0E" transform="translate(668,321)"/>
<path d="M0 0 C68.31 0 136.62 0 207 0 C207.88221408 3.52885633 208.09547699 5.93022573 208.02172852 9.50292969 C208.00163223 10.60376892 207.98153595 11.70460815 207.96083069 12.83880615 C207.93379562 14.02121887 207.90676056 15.20363159 207.87890625 16.421875 C207.85529526 17.63699768 207.83168427 18.85212036 207.80735779 20.10406494 C207.7307682 23.98616351 207.64672307 27.86806026 207.5625 31.75 C207.50927464 34.38150053 207.45653427 37.01301092 207.40429688 39.64453125 C207.27515932 46.09647912 207.13989974 52.54827701 207 59 C206.67 59 206.34 59 206 59 C206 40.19 206 21.38 206 2 C138.35 2 70.7 2 1 2 C1 31.37 1 60.74 1 91 C15.85 91 30.7 91 46 91 C45.34 91.66 44.68 92.32 44 93 C29.48 93 14.96 93 0 93 C0 62.31 0 31.62 0 0 Z " fill="#222222" transform="translate(818,65)"/>
<path d="M0 0 C0.33 0 0.66 0 1 0 C1.33 39.27 1.66 78.54 2 119 C2.33 119 2.66 119 3 119 C3 170.48 3 221.96 3 275 C2.34 275 1.68 275 1 275 C1 276.65 1 278.3 1 280 C0.67 280 0.34 280 0 280 C0 187.6 0 95.2 0 0 Z " fill="#0E0E0E" transform="translate(1070,735)"/>
<path d="M0 0 C0.33 0 0.66 0 1 0 C1 124.41 1 248.82 1 377 C31.69 377 62.38 377 94 377 C94.33 377.66 94.66 378.32 95 379 C92.53838983 380.23080509 90.93503007 380.12043977 88.18310547 380.11352539 C87.18221893 380.11344986 86.1813324 380.11337433 85.15011597 380.11329651 C84.06674957 380.10813522 82.98338318 380.10297394 81.8671875 380.09765625 C80.76021515 380.0962413 79.6532428 380.09482635 78.51272583 380.09336853 C74.96679007 380.08775772 71.42091677 380.07520337 67.875 380.0625 C65.47526133 380.05748639 63.07552167 380.05292325 60.67578125 380.04882812 C54.78383275 380.03778478 48.89192084 380.0210361 43 380 C43 379.67 43 379.34 43 379 C28.81 378.67 14.62 378.34 0 378 C0 253.26 0 128.52 0 0 Z " fill="#050505" transform="translate(875,157)"/>
<path d="M0 0 C0.33 0 0.66 0 1 0 C1 12.87 1 25.74 1 39 C44.89 39 88.78 39 134 39 C134 31.08 134 23.16 134 15 C116.84 15 99.68 15 82 15 C82 14.67 82 14.34 82 14 C82.61752136 13.98969254 83.23504272 13.97938507 83.87127686 13.96876526 C90.29515018 13.86063254 96.71888516 13.74603989 103.14257812 13.62768555 C105.54033515 13.58435845 107.9381226 13.54268178 110.3359375 13.50268555 C113.78134326 13.44492937 117.22659625 13.38124994 120.671875 13.31640625 C122.28144073 13.29133751 122.28144073 13.29133751 123.92352295 13.26576233 C124.92425842 13.24581711 125.9249939 13.22587189 126.95605469 13.20532227 C127.83541687 13.18977798 128.71477905 13.1742337 129.62078857 13.15821838 C131.86957771 13.00867313 133.83990498 12.62461828 136 12 C136.9668747 15.24819971 137.12888665 18.18790836 137.1328125 21.5703125 C137.13410156 22.63121094 137.13539063 23.69210937 137.13671875 24.78515625 C137.13285156 25.88730469 137.12898438 26.98945313 137.125 28.125 C137.12886719 29.23488281 137.13273437 30.34476562 137.13671875 31.48828125 C137.13478516 33.07576172 137.13478516 33.07576172 137.1328125 34.6953125 C137.13168457 35.66484863 137.13055664 36.63438477 137.12939453 37.63330078 C137 40 137 40 136 42 C118.30236757 42.07000884 100.60477097 42.12294821 82.90703011 42.15543652 C74.69008894 42.17092078 66.47323369 42.19203994 58.25634766 42.22631836 C51.09645084 42.25617315 43.93661622 42.27556365 36.77665889 42.28226548 C32.98372949 42.28618444 29.1909781 42.29542652 25.39810562 42.31719017 C21.83094107 42.33749362 18.26402851 42.3438464 14.69681168 42.33932304 C12.75770105 42.34054696 10.81861811 42.35672116 8.87957764 42.3732605 C7.73250336 42.36913651 6.58542908 42.36501251 5.40359497 42.36076355 C3.9019942 42.36491162 3.9019942 42.36491162 2.37005806 42.36914349 C1.19687932 42.18641746 1.19687932 42.18641746 0 42 C-0.66 41.01 -1.32 40.02 -2 39 C-1.71642368 37.65520509 -1.36869085 36.32399243 -1 35 C-0.84947591 32.31168621 -0.74394884 29.64337245 -0.68359375 26.953125 C-0.66281265 26.18192322 -0.64203156 25.41072144 -0.62062073 24.6161499 C-0.55541428 22.16085428 -0.49637516 19.70545479 -0.4375 17.25 C-0.39428726 15.58202065 -0.3506721 13.91405168 -0.30664062 12.24609375 C-0.19976264 8.16416804 -0.09841434 4.08213818 0 0 Z " fill="#070707" transform="translate(1039,239)"/>
<path d="M0 0 C0.33 0 0.66 0 1 0 C1.495 4.455 1.495 4.455 2 9 C2.33 9 2.66 9 3 9 C3.07407906 13.23580253 3.12856696 17.47126341 3.16479492 21.70751953 C3.17989483 23.14899258 3.20037658 24.59041959 3.22631836 26.03173828 C3.2626513 28.10200343 3.27971329 30.17166207 3.29296875 32.2421875 C3.3086792 33.4885498 3.32438965 34.73491211 3.34057617 36.01904297 C3.22818604 37.00275879 3.1157959 37.98647461 3 39 C-0.87264968 41.58176645 -4.08044503 41.28075281 -8.57055664 41.25878906 C-9.44560349 41.2622937 -10.32065033 41.26579834 -11.22221375 41.26940918 C-14.11827497 41.27822095 -17.01409249 41.27237979 -19.91015625 41.265625 C-21.91890001 41.26697169 -23.92764346 41.26891225 -25.93638611 41.27142334 C-30.1471568 41.27437375 -34.35784268 41.27007914 -38.56860352 41.26074219 C-43.97498597 41.2493404 -49.38117001 41.25591228 -54.7875452 41.26788712 C-58.93527227 41.27510169 -63.08295201 41.27281977 -67.23068047 41.26763153 C-69.22465475 41.2662943 -71.21863329 41.26794531 -73.21260262 41.27259064 C-75.99479748 41.27765005 -78.77666734 41.26995426 -81.55883789 41.25878906 C-82.38850067 41.26283752 -83.21816345 41.26688599 -84.07296753 41.27105713 C-89.77147043 41.22852957 -89.77147043 41.22852957 -92 39 C-92.14497985 36.41935871 -92.18677545 33.95056116 -92.125 31.375 C-92.11597656 30.66859375 -92.10695313 29.9621875 -92.09765625 29.234375 C-92.07407603 27.48943902 -92.03820461 25.74467705 -92 24 C-91.67 24 -91.34 24 -91 24 C-91 28.62 -91 33.24 -91 38 C-60.97 38 -30.94 38 0 38 C0 25.46 0 12.92 0 0 Z " fill="#0C0C0C" transform="translate(795,496)"/>
<path d="M0 0 C15.84 0 31.68 0 48 0 C48 0.33 48 0.66 48 1 C32.49 1 16.98 1 1 1 C1 9.25 1 17.5 1 26 C45.88 25.67 90.76 25.34 137 25 C136.67 25.99 136.34 26.98 136 28 C90.79 28 45.58 28 -1 28 C-0.67 18.76 -0.34 9.52 0 0 Z " fill="#040404" transform="translate(1039,480)"/>
<path d="M0 0 C0.66 0.33 1.32 0.66 2 1 C2.02490465 6.51350585 2.04295608 12.02697822 2.05493164 17.54052734 C2.05992942 19.41227795 2.06672988 21.28402471 2.07543945 23.15576172 C2.08770621 25.86166335 2.093274 28.56751292 2.09765625 31.2734375 C2.10281754 32.09677582 2.10797882 32.92011414 2.11329651 33.7684021 C2.11365737 37.59084909 1.99139605 41.30174004 1.5 45.09350586 C0.63940852 53.46925079 0.86940699 61.90160261 0.88647461 70.31103516 C0.88675701 72.26322427 0.88659771 74.21541349 0.8860321 76.16760254 C0.88574621 81.44371099 0.89160938 86.71979653 0.89860606 91.99589968 C0.90487417 97.51853601 0.90544613 103.04117292 0.90663147 108.56381226 C0.90973461 119.01119463 0.91793426 129.45856648 0.92798096 139.90594423 C0.93917372 151.80437638 0.94466051 163.70280905 0.94967639 175.60124516 C0.96011774 200.0675026 0.97769744 224.53375071 1 249 C0.34 248.67 -0.32 248.34 -1 248 C-1.02278979 216.55068285 -1.04049788 185.10136804 -1.05106533 153.65204457 C-1.05231611 149.94307853 -1.05361042 146.2341125 -1.05493164 142.52514648 C-1.05519395 141.78672695 -1.05545626 141.04830741 -1.05572652 140.28751152 C-1.06008334 128.31541081 -1.06797095 116.34331489 -1.0771528 104.37121702 C-1.08648901 92.09588779 -1.09205554 79.82056106 -1.09408849 67.54522842 C-1.09546379 59.96459392 -1.09981473 52.38397292 -1.10791647 44.80334257 C-1.11380422 39.00031515 -1.11445905 33.19729473 -1.11310768 27.39426422 C-1.11338421 25.00648604 -1.11539188 22.61870738 -1.11920547 20.23093224 C-1.12413597 16.98637875 -1.12300068 13.74188439 -1.12025452 10.49732971 C-1.12316736 9.53917832 -1.1260802 8.58102694 -1.12908131 7.59384066 C-1.11412121 1.11412121 -1.11412121 1.11412121 0 0 Z " fill="#0F0F0F" transform="translate(161,902)"/>
<path d="M0 0 C0.99 0.33 1.98 0.66 3 1 C3 36.31 3 71.62 3 108 C2.01 108 1.02 108 0 108 C0.33 73.35 0.66 38.7 1 3 C-32.66 3 -66.32 3 -101 3 C-101 2.67 -101 2.34 -101 2 C-67.67 2 -34.34 2 0 2 C0 1.34 0 0.68 0 0 Z " fill="#070606" transform="translate(262,796)"/>
<path d="M0 0 C29.37 0 58.74 0 89 0 C88.67 0.99 88.34 1.98 88 3 C83.16284021 3.78286063 78.5291355 4.12629482 73.63110352 4.12939453 C72.58082977 4.13202301 72.58082977 4.13202301 71.50933838 4.13470459 C69.2158351 4.13907278 66.92241019 4.13620264 64.62890625 4.1328125 C63.02139776 4.13348706 61.41388937 4.13445836 59.80638123 4.13571167 C56.44504826 4.13718189 53.08374196 4.13505611 49.72241211 4.13037109 C45.43105981 4.12467884 41.13977014 4.12795393 36.84842014 4.13394356 C33.53085363 4.13757135 30.21330176 4.13640033 26.89573479 4.13381577 C25.31421844 4.13315239 23.73270074 4.13395414 22.15118599 4.13629532 C19.93351895 4.13885791 17.71595077 4.13493073 15.49829102 4.12939453 C13.61135277 4.12820114 13.61135277 4.12820114 11.68629456 4.12698364 C7.72314373 3.99046299 3.92542526 3.546806 0 3 C0 2.01 0 1.02 0 0 Z " fill="#040404" transform="translate(1064,390)"/>
<path d="M0 0 C0.99 0.33 1.98 0.66 3 1 C3.02886537 5.31248609 3.04675255 9.62494762 3.0625 13.9375 C3.07087891 15.16919922 3.07925781 16.40089844 3.08789062 17.66992188 C3.09111328 18.83974609 3.09433594 20.00957031 3.09765625 21.21484375 C3.10289307 22.29886475 3.10812988 23.38288574 3.11352539 24.49975586 C3 27 3 27 2 28 C0.21095647 28.1042234 -1.58220338 28.13854078 -3.37426758 28.14526367 C-4.52248489 28.15164352 -5.67070221 28.15802338 -6.85371399 28.16459656 C-8.10468369 28.16570938 -9.35565338 28.1668222 -10.64453125 28.16796875 C-11.92100021 28.17129715 -13.19746918 28.17462555 -14.51261902 28.17805481 C-17.22044341 28.18313023 -19.92816753 28.18589407 -22.63598633 28.18530273 C-26.10291027 28.1852013 -29.56962853 28.19883065 -33.03650379 28.21607494 C-36.34334942 28.22988508 -39.65015714 28.22928433 -42.95703125 28.23046875 C-44.82437675 28.24124702 -44.82437675 28.24124702 -46.72944641 28.25224304 C-47.88712021 28.24916641 -49.04479401 28.24608978 -50.23754883 28.24291992 C-51.25601395 28.24434494 -52.27447906 28.24576996 -53.32380676 28.24723816 C-56 28 -56 28 -60 26 C-40.2 26 -20.4 26 0 26 C0 17.42 0 8.84 0 0 Z " fill="#0C0C0C" transform="translate(1173,440)"/>
<path d="M0 0 C0.33 0 0.66 0 1 0 C1 4.62 1 9.24 1 14 C30.37 14 59.74 14 90 14 C90 14.33 90 14.66 90 15 C88.94177536 15.01030746 87.88355072 15.02061493 86.79325867 15.03123474 C76.83130517 15.1288968 66.86941514 15.23162407 56.90756512 15.33933926 C51.78581084 15.39455602 46.66405085 15.4479741 41.54223633 15.49731445 C36.60147387 15.5449763 31.66078136 15.59731988 26.72010231 15.65294075 C24.83303374 15.67335603 22.945946 15.69207048 21.05884361 15.70907402 C18.42026194 15.73313625 15.78181256 15.76318844 13.14331055 15.79467773 C11.96727013 15.80331093 11.96727013 15.80331093 10.76747131 15.81211853 C7.58884044 15.85537429 5.03725341 15.9875822 2 17 C0 15 0 15 -0.1953125 11.5234375 C-0.18201493 10.14049032 -0.15816232 8.75761346 -0.125 7.375 C-0.11597656 6.66859375 -0.10695313 5.9621875 -0.09765625 5.234375 C-0.07407603 3.48943902 -0.03820461 1.74467705 0 0 Z " fill="#050505" transform="translate(703,520)"/>
<path d="M0 0 C1.32 0 2.64 0 4 0 C4.99384397 3.25258026 5.04826731 6.03465371 4.87890625 9.421875 C4.83056641 10.44667969 4.78222656 11.47148437 4.73242188 12.52734375 C4.67634766 13.59082031 4.62027344 14.65429688 4.5625 15.75 C4.51029297 16.82894531 4.45808594 17.90789062 4.40429688 19.01953125 C4.27480531 21.67999422 4.13984639 24.34006452 4 27 C3.34 27 2.68 27 2 27 C2 19.08 2 11.16 2 3 C-15.16 3 -32.32 3 -50 3 C-50 2.67 -50 2.34 -50 2 C-33.5 1.67 -17 1.34 0 1 C0 0.67 0 0.34 0 0 Z " fill="#0E0E0E" transform="translate(1171,251)"/>
<path d="M0 0 C0.33 0 0.66 0 1 0 C2.06061404 13.35237314 2.75631789 26.67080174 1 40 C0.34 40 -0.32 40 -1 40 C-1.02467759 34.62484067 -1.04284928 29.24971415 -1.05493164 23.87451172 C-1.05996737 22.04507879 -1.06679627 20.21564991 -1.07543945 18.38623047 C-1.08753824 15.76008102 -1.09323583 13.13398468 -1.09765625 10.5078125 C-1.10281754 9.68693146 -1.10797882 8.86605042 -1.11329651 8.02029419 C-1.11387171 2.22774341 -1.11387171 2.22774341 0 0 Z " fill="#0D0D0D" transform="translate(803,173)"/>
<path d="M0 0 C0.66 0 1.32 0 2 0 C3.00708069 11.0239368 3.10611887 21.94005573 3 33 C2.67 33 2.34 33 2 33 C1.67 35.64 1.34 38.28 1 41 C0.67 41 0.34 41 0 41 C0 27.47 0 13.94 0 0 Z " fill="#131210" transform="translate(280,185)"/>
<path d="M0 0 C9.57 0 19.14 0 29 0 C29 0.66 29 1.32 29 2 C29.99 2.33 30.98 2.66 32 3 C21.44 3 10.88 3 0 3 C0 2.01 0 1.02 0 0 Z " fill="#111111" transform="translate(1064,251)"/>
<path d="M0 0 C4.45827926 -0.0578304 8.9164628 -0.09353855 13.375 -0.125 C15.28152344 -0.15013672 15.28152344 -0.15013672 17.2265625 -0.17578125 C18.43828125 -0.18222656 19.65 -0.18867188 20.8984375 -0.1953125 C22.01911621 -0.20578613 23.13979492 -0.21625977 24.29443359 -0.22705078 C27 0 27 0 29 2 C28 3 28 3 25.40795898 3.11352539 C24.28204346 3.10828857 23.15612793 3.10305176 21.99609375 3.09765625 C20.78115234 3.09443359 19.56621094 3.09121094 18.31445312 3.08789062 C17.03505859 3.07951172 15.75566406 3.07113281 14.4375 3.0625 C13.15423828 3.05798828 11.87097656 3.05347656 10.54882812 3.04882812 C7.36583978 3.03699545 4.18294238 3.02051068 1 3 C0.67 2.01 0.34 1.02 0 0 Z " fill="#070707" transform="translate(670,152)"/>
<path d="M0 0 C0.33 0 0.66 0 1 0 C1.74984705 4.00091404 2.1195296 7.76749517 2.09765625 11.8359375 C2.09443359 12.89941406 2.09121094 13.96289062 2.08789062 15.05859375 C2.07951172 16.15300781 2.07113281 17.24742187 2.0625 18.375 C2.05798828 19.49261719 2.05347656 20.61023438 2.04882812 21.76171875 C2.03709244 24.50786804 2.02067363 27.25390586 2 30 C1.01 30.33 0.02 30.66 -1 31 C-1.02915731 26.95834861 -1.04685173 22.9167245 -1.0625 18.875 C-1.07087891 17.73289063 -1.07925781 16.59078125 -1.08789062 15.4140625 C-1.09111328 14.30546875 -1.09433594 13.196875 -1.09765625 12.0546875 C-1.10289307 11.03874512 -1.10812988 10.02280273 -1.11352539 8.97607422 C-0.99652309 5.90885274 -0.56776417 3.01366866 0 0 Z " fill="#060606" transform="translate(711,175)"/>
<path d="M0 0 C6.20308332 0.48105544 12.38794296 1.11034897 18.5625 1.875 C20.32787109 2.08769531 20.32787109 2.08769531 22.12890625 2.3046875 C25 3 25 3 27 6 C7.34863577 5.00433088 7.34863577 5.00433088 2 3 C1.34 2.01 0.68 1.02 0 0 Z " fill="#0E0E0E" transform="translate(1058,1150)"/>
<path d="M0 0 C12.87 0 25.74 0 39 0 C39 0.33 39 0.66 39 1 C37.73027344 1.06058594 36.46054688 1.12117188 35.15234375 1.18359375 C33.91291016 1.24401855 33.91291016 1.24401855 32.6484375 1.30566406 C30.83211509 1.39399386 29.01570637 1.48056525 27.19921875 1.56542969 C22.94842803 1.77106469 18.71075373 2.00301449 14.47265625 2.39453125 C13.16167969 2.51183594 11.85070313 2.62914062 10.5 2.75 C9.3346875 2.86859375 8.169375 2.9871875 6.96875 3.109375 C4 3 4 3 0 0 Z " fill="#020202" transform="translate(1053,278)"/>
<path d="M0 0 C0.66 0.33 1.32 0.66 2 1 C1.67 9.25 1.34 17.5 1 26 C0.34 26 -0.32 26 -1 26 C-1.02886751 21.85418113 -1.04675327 17.70838784 -1.0625 13.5625 C-1.07087891 12.37849609 -1.07925781 11.19449219 -1.08789062 9.97460938 C-1.09111328 8.84990234 -1.09433594 7.72519531 -1.09765625 6.56640625 C-1.10289307 5.52427979 -1.10812988 4.48215332 -1.11352539 3.40844727 C-1 1 -1 1 0 0 Z " fill="#121212" transform="translate(1174,480)"/>
<path d="M0 0 C1.94268841 2.91403262 3.46395304 5.85808576 5 9 C7.31 9 9.62 9 12 9 C11.34 10.65 10.68 12.3 10 14 C7.75 14.3125 7.75 14.3125 5 14 C1.59320169 11.06636813 0.74115883 8.51242633 0.25 4.1875 C0.14988885 2.7927696 0.06087116 1.39699314 0 0 Z " fill="#F8F5ED" transform="translate(404,994)"/>
<path d="M0 0 C2.9375 -0.5 2.9375 -0.5 6 0 C7.88599343 2.38892501 9 3.91851558 9 7 C8.4225 6.67 7.845 6.34 7.25 6 C4.80116138 4.72924102 4.80116138 4.72924102 1 5 C0.67 5.66 0.34 6.32 0 7 C-0.66 7 -1.32 7 -2 7 C-2.33 7.66 -2.66 8.32 -3 9 C-2.5020163 5.26512223 -2.12508244 3.18762365 0 0 Z " fill="#DDDAC2" transform="translate(409,920)"/>
<path d="M0 0 C-0.33 0.99 -0.66 1.98 -1 3 C-3.56204544 3.33719047 -6.12454318 3.66987153 -8.6875 4 C-9.40873047 4.09539062 -10.12996094 4.19078125 -10.87304688 4.2890625 C-14.60992871 4.76683735 -18.22291531 5.11919794 -22 5 C-21.01 4.67 -20.02 4.34 -19 4 C-19 3.34 -19 2.68 -19 2 C-16.77149723 1.66225668 -14.54216533 1.3299813 -12.3125 1 C-10.45044922 0.7215625 -10.45044922 0.7215625 -8.55078125 0.4375 C-5.64113629 0.07899589 -2.92299978 -0.08942256 0 0 Z " fill="#090909" transform="translate(1133,1151)"/>
<path d="M0 0 C0.66 0.33 1.32 0.66 2 1 C-0.69303434 4.69045446 -3.06259136 6.75005221 -7 9 C-9.05582193 10.60869281 -11.02033324 12.29656581 -13 14 C-13.66 13.34 -14.32 12.68 -15 12 C-10.20968493 7.61420043 -5.54110713 3.40991208 0 0 Z " fill="#0F0F0F" transform="translate(1017,618)"/>
<path d="M0 0 C2 3 2 3 1.4375 5.875 C-0.94790087 11.06065407 -4.82375675 14.61096466 -10 17 C-12.3125 16.6875 -12.3125 16.6875 -14 16 C-13.01 16 -12.02 16 -11 16 C-10.67 15.01 -10.34 14.02 -10 13 C-9.071875 12.46375 -8.14375 11.9275 -7.1875 11.375 C-2.9849875 8.24371618 -1.75203977 4.82326243 0 0 Z " fill="#0F0F0F" transform="translate(1117,1038)"/>
<path d="M0 0 C0.5671875 0.28875 1.134375 0.5775 1.71875 0.875 C3.95644462 1.97852064 6.21508776 2.99839464 8.5 4 C11.37537997 5.26044053 14.20199132 6.57555922 17 8 C16.34 8 15.68 8 15 8 C14.67 8.66 14.34 9.32 14 10 C12.39214223 9.40572612 10.78882291 8.79916412 9.1875 8.1875 C8.29417969 7.85105469 7.40085937 7.51460938 6.48046875 7.16796875 C4.03541841 6.01667733 2.67353445 5.09587753 1 3 C0.67 2.01 0.34 1.02 0 0 Z " fill="#0D0D0D" transform="translate(1046,382)"/>
<path d="M0 0 C7.22897572 -0.64257562 13.57157367 1.78578684 20 5 C19.67 5.66 19.34 6.32 19 7 C15.12140756 7 12.53251661 5.54934939 9 4 C7.67723944 3.62691369 6.34767923 3.26953585 5 3 C5 2.34 5 1.68 5 1 C3.35 1 1.7 1 0 1 C0 0.67 0 0.34 0 0 Z " fill="#0A0A0A" transform="translate(679,321)"/>
<path d="M0 0 C3.96 0.33 7.92 0.66 12 1 C7.87485791 3.06257104 6.18199862 3.23756602 1.703125 3.1953125 C-0.10478516 3.18564453 -0.10478516 3.18564453 -1.94921875 3.17578125 C-3.83060547 3.15064453 -3.83060547 3.15064453 -5.75 3.125 C-7.01972656 3.11597656 -8.28945312 3.10695313 -9.59765625 3.09765625 C-12.73196093 3.07409005 -15.86588541 3.04118832 -19 3 C-19 2.67 -19 2.34 -19 2 C-12.73 1.67 -6.46 1.34 0 1 C0 0.67 0 0.34 0 0 Z " fill="#0E0E0E" transform="translate(186,65)"/>
<path d="M0 0 C4.72065967 1.54269924 9.41664092 3.07794619 14 5 C13.01 6.485 13.01 6.485 12 8 C7.38 6.02 2.76 4.04 -2 2 C-1.34 1.34 -0.68 0.68 0 0 Z " fill="#0D0D0D" transform="translate(1033,1141)"/>
<path d="M0 0 C6.27 0 12.54 0 19 0 C18.67 0.99 18.34 1.98 18 3 C12.06 3 6.12 3 0 3 C0 2.01 0 1.02 0 0 Z " fill="#080808" transform="translate(146,151)"/>
<path d="M0 0 C-0.99 0.33 -1.98 0.66 -3 1 C-3 1.66 -3 2.32 -3 3 C-10.02618978 4.5056121 -16.89452919 3.64057643 -24 3 C-24 2.67 -24 2.34 -24 2 C-21.12543208 1.66252452 -18.25043941 1.32989537 -15.375 1 C-14.16263672 0.85691406 -14.16263672 0.85691406 -12.92578125 0.7109375 C-8.59026261 0.21746383 -4.37262689 -0.11320717 0 0 Z " fill="#070707" transform="translate(212,346)"/>
<path d="M0 0 C11.04194697 5.14166996 11.04194697 5.14166996 14 9 C14.33 9.99 14.66 10.98 15 12 C12.1902414 10.63922005 9.52384135 9.15174898 6.875 7.5 C6.19179688 7.0771875 5.50859375 6.654375 4.8046875 6.21875 C2.02408788 4.34094246 1.07801677 3.23405031 0 0 Z " fill="#0F0F0F" transform="translate(758,72)"/>
<path d="M0 0 C2.69082872 0.17635452 5.32851446 0.61835921 8 1 C7.67 1.66 7.34 2.32 7 3 C-1.25 3 -9.5 3 -18 3 C-18 2.67 -18 2.34 -18 2 C-16.17662109 1.90912109 -16.17662109 1.90912109 -14.31640625 1.81640625 C-12.73175772 1.73201668 -11.14712298 1.6473679 -9.5625 1.5625 C-8.76005859 1.52318359 -7.95761719 1.48386719 -7.13085938 1.44335938 C-3.24760439 1.5945704 -3.24760439 1.5945704 0 0 Z " fill="#0E0E0E" transform="translate(726,65)"/>
<path d="M0 0 C6.27 0 12.54 0 19 0 C19 0.33 19 0.66 19 1 C13.27959989 1.8320582 7.77759884 2.12036664 2 2 C1.67 3.65 1.34 5.3 1 7 C0.67 7 0.34 7 0 7 C0 4.69 0 2.38 0 0 Z " fill="#212121" transform="translate(968,156)"/>
<path d="M0 0 C7.48291572 6.15034169 7.48291572 6.15034169 10 10 C6 10 6 10 4.078125 8.46875 C3.47484375 7.8190625 2.8715625 7.169375 2.25 6.5 C1.63640625 5.8503125 1.0228125 5.200625 0.390625 4.53125 C-0.06828125 4.0259375 -0.5271875 3.520625 -1 3 C-0.67 2.01 -0.34 1.02 0 0 Z " fill="#0C0C0C" transform="translate(1000,1116)"/>
<path d="M0 0 C0.99 0 1.98 0 3 0 C1.50374776 3.80864206 -0.51844874 5.86359354 -4 8 C-7.3125 7.75 -7.3125 7.75 -10 7 C-7.78877592 5.85343936 -5.670069 4.88490779 -3.3125 4.0625 C-2.549375 3.711875 -1.78625 3.36125 -1 3 C-0.67 2.01 -0.34 1.02 0 0 Z " fill="#101010" transform="translate(703,232)"/>
<path d="M0 0 C2.69536452 1.99222595 3.00865961 3.04762785 3.625 6.4375 C3.74875 7.613125 3.8725 8.78875 4 10 C4.30903983 11.33917261 4.62942911 12.67653254 5 14 C4.01 13.67 3.02 13.34 2 13 C1.015625 10.3125 1.015625 10.3125 0.25 7 C-0.01296875 5.906875 -0.2759375 4.81375 -0.546875 3.6875 C-0.69640625 2.800625 -0.8459375 1.91375 -1 1 C-0.67 0.67 -0.34 0.34 0 0 Z " fill="#0F0F0F" transform="translate(700,329)"/>
<path d="M0 0 C0.33 0 0.66 0 1 0 C1 4.29 1 8.58 1 13 C1.66 13 2.32 13 3 13 C2.625 15.9375 2.625 15.9375 2 19 C1.34 19.33 0.68 19.66 0 20 C0 13.4 0 6.8 0 0 Z " fill="#0B0B0B" transform="translate(1231,725)"/>
<path d="M0 0 C3.96 0 7.92 0 12 0 C12 0.99 12 1.98 12 3 C8.04 3 4.08 3 0 3 C0 2.01 0 1.02 0 0 Z " fill="#0B0B0B" transform="translate(1074,239)"/>
<path d="M0 0 C0.33 0 0.66 0 1 0 C1.34548714 6.33393082 0.29342747 11.10261508 -2 17 C-2.66 16.67 -3.32 16.34 -4 16 C-2.68 10.72 -1.36 5.44 0 0 Z " fill="#FBF9F2" transform="translate(419,987)"/>
<path d="M0 0 C1.125 3.75 1.125 3.75 0 6 C0 6.804375 0 7.60875 0 8.4375 C0 11 0 11 -1 14 C-1.99 13.67 -2.98 13.34 -4 13 C-3.34 9.37 -2.68 5.74 -2 2 C-1.34 2 -0.68 2 0 2 C0 1.34 0 0.68 0 0 Z " fill="#0D0D0D" transform="translate(1122,1022)"/>
<path d="M0 0 C6.4 0.49230769 6.4 0.49230769 9.4375 3.0625 C10.2109375 4.0215625 10.2109375 4.0215625 11 5 C10.01 5.495 10.01 5.495 9 6 C6.8359375 5.22265625 6.8359375 5.22265625 4.375 4.0625 C3.55773438 3.68222656 2.74046875 3.30195312 1.8984375 2.91015625 C1.27195312 2.60980469 0.64546875 2.30945313 0 2 C0 1.34 0 0.68 0 0 Z " fill="#0B0B0B" transform="translate(1103,700)"/>
<path d="M0 0 C3.99500618 1.3697164 6.80009492 3.25722422 10 6 C7 7 7 7 4.95703125 6.00390625 C4.24933594 5.52824219 3.54164062 5.05257812 2.8125 4.5625 C2.09707031 4.08941406 1.38164063 3.61632812 0.64453125 3.12890625 C0.10183594 2.75636719 -0.44085937 2.38382813 -1 2 C-0.67 1.34 -0.34 0.68 0 0 Z " fill="#101010" transform="translate(1172,615)"/>
<path d="M0 0 C-2.3129482 2.3129482 -3.47904875 2.49580975 -6.625 3.125 C-7.44226562 3.29257813 -8.25953125 3.46015625 -9.1015625 3.6328125 C-10.04128906 3.81457031 -10.04128906 3.81457031 -11 4 C-10 1 -10 1 -7.75 -0.25 C-4.71763271 -1.07700926 -2.98879276 -0.85394079 0 0 Z " fill="#090909" transform="translate(1153,1147)"/>
<path d="M0 0 C0.66 0.99 1.32 1.98 2 3 C1.5390625 5.04296875 1.5390625 5.04296875 0.625 7.1875 C0.32851562 7.90292969 0.03203125 8.61835937 -0.2734375 9.35546875 C-0.51320313 9.89816406 -0.75296875 10.44085937 -1 11 C-1.99 11 -2.98 11 -4 11 C-3.52269162 9.5410574 -3.04308958 8.08286504 -2.5625 6.625 C-2.29566406 5.81289062 -2.02882813 5.00078125 -1.75390625 4.1640625 C-1 2 -1 2 0 0 Z " fill="#121212" transform="translate(1219,1077)"/>
<path d="M0 0 C3.3 0.33 6.6 0.66 10 1 C10 1.99 10 2.98 10 4 C9.34 3.835 8.68 3.67 8 3.5 C4.26900206 2.87816701 0.78126622 2.93591074 -3 3 C-2.01 2.67 -1.02 2.34 0 2 C0 1.34 0 0.68 0 0 Z " fill="#0E0E0E" transform="translate(1122,600)"/>
<path d="M0 0 C4.06623972 1.35541324 5.53046818 3.57009469 8 7 C7.67 7.99 7.34 8.98 7 10 C5.62437146 8.71034824 4.29233607 7.37310707 3 6 C3 5.34 3 4.68 3 4 C2.01 3.67 1.02 3.34 0 3 C0 2.01 0 1.02 0 0 Z " fill="#101010" transform="translate(776,85)"/>
<path d="M0 0 C1.95917659 0.0868748 3.91741871 0.19504512 5.875 0.3125 C7.51082031 0.39951172 7.51082031 0.39951172 9.1796875 0.48828125 C10.11039063 0.65714844 11.04109375 0.82601563 12 1 C12.66 1.99 13.32 2.98 14 4 C12.4156683 3.91231752 10.83246433 3.80412671 9.25 3.6875 C7.92742187 3.60048828 7.92742187 3.60048828 6.578125 3.51171875 C3.67696226 2.9358819 2.20774393 1.92403852 0 0 Z " fill="#060606" transform="translate(1071,1152)"/>
<path d="M0 0 C0.99 0.33 1.98 0.66 3 1 C0.42215154 3.64752004 -1.91648098 5.94432065 -5 8 C-5.66 7.34 -6.32 6.68 -7 6 C-6.21625 5.566875 -5.4325 5.13375 -4.625 4.6875 C-1.78301625 3.10779753 -1.78301625 3.10779753 0 0 Z " fill="#0E0E0E" transform="translate(1186,1125)"/>
<path d="M0 0 C0.99 0 1.98 0 3 0 C7 6.75 7 6.75 7 9 C6.01 9 5.02 9 4 9 C0 2.25 0 2.25 0 0 Z " fill="#121212" transform="translate(982,1093)"/>
<path d="M0 0 C2.32101984 3.48152976 2.69903201 5.86169011 3 10 C2.34 10.66 1.68 11.32 1 12 C0.63762737 10.37681021 0.28534843 8.7513642 -0.0625 7.125 C-0.25972656 6.22007812 -0.45695312 5.31515625 -0.66015625 4.3828125 C-1 2 -1 2 0 0 Z " fill="#0F0F0E" transform="translate(272,132)"/>
<path d="M0 0 C0.66 0.33 1.32 0.66 2 1 C1.67 3.97 1.34 6.94 1 10 C0.01 10.33 -0.98 10.66 -2 11 C-1.85892253 9.54119891 -1.71197585 8.08296449 -1.5625 6.625 C-1.48128906 5.81289062 -1.40007812 5.00078125 -1.31640625 4.1640625 C-1 2 -1 2 0 0 Z " fill="#0E0E0E" transform="translate(1228,1045)"/>
<path d="M0 0 C1.31722179 0.42307123 2.62872664 0.86397486 3.9375 1.3125 C4.66839844 1.55613281 5.39929687 1.79976562 6.15234375 2.05078125 C8 3 8 3 9 6 C5.04179141 5.43454163 2.3340947 4.19097652 -1 2 C-0.67 1.34 -0.34 0.68 0 0 Z " fill="#0F0F0F" transform="translate(1083,1049)"/>
<path d="M0 0 C2.45823172 3.68734758 3.01242616 6.69699971 4 11 C1 10 1 10 -0.25 7.75 C-1.07700926 4.71763271 -0.85394079 2.98879276 0 0 Z " fill="#101010" transform="translate(1222,672)"/>
<path d="M0 0 C-2.52788007 2.79872437 -4.20411134 4.45773019 -8 5 C-8 4.01 -8 3.02 -8 2 C-3.71900826 -1.23966942 -3.71900826 -1.23966942 0 0 Z " fill="#0C0C0C" transform="translate(1166,385)"/>
<path d="M0 0 C1.1171875 1.734375 1.1171875 1.734375 2 4 C1.3203125 6.140625 1.3203125 6.140625 0.125 8.25 C-0.26429688 8.95640625 -0.65359375 9.6628125 -1.0546875 10.390625 C-1.36664063 10.92171875 -1.67859375 11.4528125 -2 12 C-3.15957207 8.52128379 -2.77456651 7.65780355 -1.5625 4.3125 C-1.13130859 3.10013672 -1.13130859 3.10013672 -0.69140625 1.86328125 C-0.46324219 1.24839844 -0.23507813 0.63351563 0 0 Z " fill="#101010" transform="translate(184,242)"/>
<path d="M0 0 C0.66 0 1.32 0 2 0 C1.34 1.65 0.68 3.3 0 5 C-1.65 5 -3.3 5 -5 5 C-5.33 4.01 -5.66 3.02 -6 2 C-4.02 2 -2.04 2 0 2 C0 1.34 0 0.68 0 0 Z " fill="#EDE6C2" transform="translate(414,1003)"/>
<path d="M0 0 C0.99 0.66 1.98 1.32 3 2 C1.35 3.98 -0.3 5.96 -2 8 C-2.66 7.67 -3.32 7.34 -4 7 C-2.92598892 4.08482708 -2.22189824 2.22189824 0 0 Z " fill="#101010" transform="translate(992,640)"/>
<path d="M0 0 C0.66 0.99 1.32 1.98 2 3 C0.56465159 3.2226746 -0.87345525 3.42761906 -2.3125 3.625 C-3.11300781 3.74101562 -3.91351563 3.85703125 -4.73828125 3.9765625 C-7 4 -7 4 -10 2 C-6.7 1.34 -3.4 0.68 0 0 Z " fill="#101010" transform="translate(166,261)"/>
<path d="M0 0 C2.42102911 1.18098981 3.82068009 2.2331559 5.5625 4.25 C1.95953406 4.66176754 0.77847933 4.4035853 -2.25 2.25 C-2.971875 1.59 -3.69375 0.93 -4.4375 0.25 C-2.4375 -0.75 -2.4375 -0.75 0 0 Z " fill="#0F0F0F" transform="translate(1021.4375,1133.75)"/>
<path d="M0 0 C2.99931194 1.99954129 3.81380099 2.73795271 5 6 C4.67 6.99 4.34 7.98 4 9 C4 8.34 4 7.68 4 7 C3.01 6.67 2.02 6.34 1 6 C-0.1875 3.4375 -0.1875 3.4375 -1 1 C-0.67 0.67 -0.34 0.34 0 0 Z " fill="#0E0E0E" transform="translate(1115,706)"/>
<path d="M0 0 C0.66 0.33 1.32 0.66 2 1 C-1.465 3.97 -1.465 3.97 -5 7 C-5 5.68 -5 4.36 -5 3 C-2.625 1.1875 -2.625 1.1875 0 0 Z " fill="#0E0E0E" transform="translate(1048,332)"/>
<path d="M0 0 C0.99 0 1.98 0 3 0 C2.7452486 1.31571603 2.47065859 2.62760376 2.1875 3.9375 C2.03667969 4.66839844 1.88585937 5.39929688 1.73046875 6.15234375 C1.48941406 6.76207031 1.24835938 7.37179687 1 8 C0.01 8.33 -0.98 8.66 -2 9 C-1.41196203 5.97580475 -0.77321882 2.98241547 0 0 Z " fill="#111111" transform="translate(272,281)"/>
<path d="M0 0 C3.68802044 1.22934015 4.72356973 2.93859378 7 6 C6.67 6.66 6.34 7.32 6 8 C5.34 8 4.68 8 4 8 C3.896875 7.360625 3.79375 6.72125 3.6875 6.0625 C3.460625 5.381875 3.23375 4.70125 3 4 C2.01 3.67 1.02 3.34 0 3 C0 2.01 0 1.02 0 0 Z " fill="#0D0D0D" transform="translate(702,155)"/>
<path d="M0 0 C2.3125 0.1875 2.3125 0.1875 5 1 C6.8125 3.5625 6.8125 3.5625 8 6 C7.01 6.33 6.02 6.66 5 7 C3.35 4.69 1.7 2.38 0 0 Z " fill="#121212" transform="translate(1165,333)"/>
<path d="M0 0 C2.31 0 4.62 0 7 0 C6.0409375 0.433125 6.0409375 0.433125 5.0625 0.875 C2.84793921 1.82823451 2.84793921 1.82823451 2 4 C1.34 4 0.68 4 0 4 C-0.33 4.66 -0.66 5.32 -1 6 C-0.67 4.02 -0.34 2.04 0 0 Z " fill="#E9E6DF" transform="translate(407,923)"/>
<path d="M0 0 C2.97 0 5.94 0 9 0 C9 0.33 9 0.66 9 1 C6.69 1.33 4.38 1.66 2 2 C2 3.65 2 5.3 2 7 C1.67 7 1.34 7 1 7 C0.67 4.69 0.34 2.38 0 0 Z " fill="#262626" transform="translate(161,711)"/>
<path d="M0 0 C0.99 0.33 1.98 0.66 3 1 C1.35 2.65 -0.3 4.3 -2 6 C-2.66 5.67 -3.32 5.34 -4 5 C-3 2 -3 2 0 0 Z " fill="#090909" transform="translate(1084,703)"/>
<path d="M0 0 C1.8125 0.1875 1.8125 0.1875 4 1 C5.75 3.5625 5.75 3.5625 7 6 C6.34 6.66 5.68 7.32 5 8 C0 2.25 0 2.25 0 0 Z " fill="#101010" transform="translate(1201,640)"/>
<path d="M0 0 C2.475 0.495 2.475 0.495 5 1 C5 1.66 5 2.32 5 3 C5.66 3 6.32 3 7 3 C6.67 3.99 6.34 4.98 6 6 C3.96166576 4.7260411 1.96147874 3.38938077 0 2 C0 1.34 0 0.68 0 0 Z " fill="#101010" transform="translate(1144,352)"/>
<path d="M0 0 C1.5625 1.75 1.5625 1.75 3 4 C2.6875 6.25 2.6875 6.25 2 8 C0.4375 6.25 0.4375 6.25 -1 4 C-0.6875 1.75 -0.6875 1.75 0 0 Z " fill="#0F0F0F" transform="translate(791,106)"/>
<path d="M0 0 C4.55384615 -0.36923077 4.55384615 -0.36923077 6.8125 1.5 C7.204375 1.995 7.59625 2.49 8 3 C2.25 3.125 2.25 3.125 0 2 C0 1.34 0 0.68 0 0 Z " fill="#121212" transform="translate(1067,212)"/>
<path d="M0 0 C1.5625 1.75 1.5625 1.75 3 4 C2.6875 6.25 2.6875 6.25 2 8 C0.4375 6.25 0.4375 6.25 -1 4 C-0.6875 1.75 -0.6875 1.75 0 0 Z " fill="#101010" transform="translate(787,98)"/>
<path d="" fill="#000000" transform="translate(0,0)"/>
<path d="" fill="#000000" transform="translate(0,0)"/>
<path d="" fill="#000000" transform="translate(0,0)"/>
</svg>
